<svg xmlns="http://www.w3.org/2000/svg" version="1.1" xmlns:xlink="http://www.w3.org/1999/xlink" width="512" height="512" x="0" y="0" viewBox="0 0 512 512" style="enable-background:new 0 0 512 512" xml:space="preserve" class=""><g><path fill="#ffa096" d="M191.996 268.001c26.511 0 48.003 21.492 48.003 48.003v136.009c0 26.511-21.492 48.003-48.003 48.003s-48.003-21.492-48.003-48.003V316.004c0-26.512 21.492-48.003 48.003-48.003zM63.988 268.001h48.003v48.003c0 26.511-21.492 48.003-48.003 48.003s-48.003-21.492-48.003-48.003c0-26.512 21.492-48.003 48.003-48.003z" opacity="1" data-original="#ffa096"></path><path fill="#ffffff" d="M63.988 268.001c0 11.046 7.462 20.35 17.621 23.144 3.654 1.005 6.381 4.026 6.381 7.816v1.042c0 13.256 10.746 24.001 24.001 24.001V268H63.988z" opacity="1" data-original="#ffffff"></path><path fill="#ffedbe" d="M272.001 324.004c0-26.511 21.492-48.003 48.003-48.003h136.009c26.511 0 48.003 21.492 48.003 48.003s-21.492 48.003-48.003 48.003H320.004c-26.511 0-48.003-21.491-48.003-48.003zM272.001 452.012v-48.003h48.003c26.511 0 48.003 21.492 48.003 48.003s-21.492 48.003-48.003 48.003-48.003-21.491-48.003-48.003z" opacity="1" data-original="#ffedbe"></path><path fill="#bef2f5" d="M239.999 187.996c0 26.511-21.492 48.003-48.003 48.003H55.987c-26.511 0-48.003-21.492-48.003-48.003s21.492-48.003 48.003-48.003h136.009c26.511 0 48.003 21.491 48.003 48.003zM239.999 59.988v48.003h-48.003c-26.511 0-48.003-21.492-48.003-48.003s21.492-48.003 48.003-48.003 48.003 21.491 48.003 48.003z" opacity="1" data-original="#bef2f5"></path><path fill="#ffffff" d="M191.996 11.985v7.653c0 8.305 4.941 15.428 12.105 19.63 7.112 4.17 11.897 11.897 11.897 20.72 0 13.256 10.746 24.001 24.001 24.001V59.988c0-26.512-21.492-48.003-48.003-48.003z" opacity="1" data-original="#ffffff"></path><path fill="#8cebaf" d="M320.004 243.999c-26.511 0-48.003-21.492-48.003-48.003V59.988c0-26.511 21.492-48.003 48.003-48.003s48.003 21.492 48.003 48.003v136.009c0 26.511-21.492 48.002-48.003 48.002z" opacity="1" data-original="#8cebaf"></path><path fill="#ffffff" d="M320.004 19.638c0 8.305 4.941 15.428 12.105 19.63 7.111 4.17 11.896 11.897 11.896 20.72v112.007c0 13.256 10.746 24.001 24.001 24.001V59.988c0-26.512-21.491-48.003-48.003-48.003v7.653zM191.996 275.654c0 8.305 4.941 15.428 12.105 19.63 7.112 4.17 11.897 11.897 11.897 20.72v112.007c0 13.256 10.746 24.001 24.001 24.001V316.004c0-26.512-21.492-48.003-48.003-48.003zM496.362 324.004c-8.305 0-15.428-4.941-19.63-12.105-4.17-7.111-11.897-11.896-20.72-11.896H344.005c-13.256 0-24.001-10.746-24.001-24.001h136.009c26.511 0 48.003 21.491 48.003 48.003h-7.654zM232.346 187.996c-8.305 0-15.428-4.941-19.63-12.105-4.17-7.112-11.897-11.897-20.72-11.897H79.989c-13.256 0-24.001-10.746-24.001-24.001h136.009c26.511 0 48.003 21.492 48.003 48.003z" opacity="1" data-original="#ffffff"></path><path fill="#8cebaf" d="M448.012 243.999h-48.003v-48.003c0-26.511 21.492-48.003 48.003-48.003s48.003 21.492 48.003 48.003c0 26.512-21.492 48.003-48.003 48.003z" opacity="1" data-original="#8cebaf"></path><path fill="#ffffff" d="M472.014 195.996c0 1.103-.075 2.189-.22 3.253-1.464 10.76 1.13 21.66 8.808 29.338l1.353 1.353c8.687-8.688 14.06-20.688 14.06-33.944 0-26.511-21.492-48.003-48.003-48.003v1.937c0 10.732 5.605 20.374 14.236 26.753 5.92 4.375 9.766 11.403 9.766 19.313zM344.005 452.012c0 1.103-.075 2.189-.219 3.253-1.464 10.76 1.13 21.66 8.808 29.338l1.353 1.353c8.687-8.688 14.06-20.688 14.06-33.944 0-26.511-21.491-48.003-48.003-48.003v1.937c0 10.732 5.605 20.374 14.236 26.753 5.92 4.375 9.765 11.403 9.765 19.313z" opacity="1" data-original="#ffffff"></path><path fill="#00bebe" d="M320.004 251.983c-30.871 0-55.987-25.116-55.987-55.987V59.987C264.017 29.116 289.133 4 320.004 4s55.987 25.116 55.987 55.987v136.009c0 30.871-25.116 55.987-55.987 55.987zm0-232.014c-22.066 0-40.018 17.952-40.018 40.019v136.009c0 22.066 17.952 40.019 40.018 40.019s40.018-17.952 40.018-40.019V59.987c0-22.066-17.952-40.018-40.018-40.018zM448.012 251.983h-48.003a7.985 7.985 0 0 1-7.984-7.984v-48.003c0-30.871 25.116-55.987 55.987-55.987s55.987 25.116 55.987 55.987-25.116 55.987-55.987 55.987zm-40.019-15.968h40.018c22.066 0 40.019-17.952 40.019-40.019s-17.952-40.018-40.019-40.018c-22.066 0-40.018 17.952-40.018 40.018z" opacity="1" data-original="#00bebe"></path><path fill="#c37678" d="M456.013 379.991H320.004c-30.871 0-55.987-25.116-55.987-55.987s25.116-55.987 55.987-55.987h136.009c30.871 0 55.987 25.116 55.987 55.987s-25.116 55.987-55.987 55.987zm-136.009-96.006c-22.066 0-40.018 17.952-40.018 40.018s17.952 40.018 40.018 40.018h136.009c22.066 0 40.018-17.952 40.018-40.018s-17.952-40.018-40.018-40.018zM320.004 508c-30.871 0-55.987-25.116-55.987-55.987V404.01a7.985 7.985 0 0 1 7.984-7.984h48.003c30.871 0 55.987 25.116 55.987 55.987S350.875 508 320.004 508zm-40.019-96.006v40.018c0 22.066 17.952 40.018 40.018 40.018s40.018-17.952 40.018-40.018-17.952-40.018-40.018-40.018zM191.996 508c-30.871 0-55.987-25.116-55.987-55.987V316.004c0-30.871 25.116-55.987 55.987-55.987s55.987 25.116 55.987 55.987v136.009c0 30.871-25.116 55.987-55.987 55.987zm0-232.015c-22.066 0-40.018 17.952-40.018 40.018v136.009c0 22.066 17.952 40.018 40.018 40.018s40.019-17.952 40.019-40.018V316.004c0-22.066-17.953-40.019-40.019-40.019zM63.988 371.991c-30.871 0-55.987-25.116-55.987-55.987s25.116-55.987 55.987-55.987h48.003a7.985 7.985 0 0 1 7.984 7.984v48.003c.001 30.871-25.115 55.987-55.987 55.987zm0-96.006c-22.066 0-40.019 17.952-40.019 40.018s17.952 40.018 40.019 40.018 40.018-17.952 40.018-40.018v-40.018z" opacity="1" data-original="#c37678"></path><path fill="#00abd5" d="M191.996 243.983H55.987C25.116 243.983 0 218.867 0 187.996s25.116-55.987 55.987-55.987h136.009c30.871 0 55.987 25.116 55.987 55.987s-25.116 55.987-55.987 55.987zM55.987 147.978c-22.066 0-40.019 17.952-40.019 40.018s17.952 40.019 40.019 40.019h136.009c22.066 0 40.019-17.952 40.019-40.019s-17.952-40.018-40.019-40.018zM239.999 115.975h-48.003c-30.871 0-55.987-25.116-55.987-55.987C136.009 29.116 161.125 4 191.996 4s55.987 25.116 55.987 55.987v48.003a7.985 7.985 0 0 1-7.984 7.985zm-48.003-96.006c-22.066 0-40.018 17.952-40.018 40.019 0 22.066 17.952 40.018 40.018 40.018h40.019V59.987c0-22.066-17.953-40.018-40.019-40.018z" opacity="1" data-original="#00abd5"></path><path fill="#283246" d="M191.996 508c-30.871 0-55.987-25.116-55.987-55.987V388.01a7.985 7.985 0 0 1 15.968 0v64.003c0 22.066 17.952 40.018 40.018 40.018 13.437 0 25.906-6.691 33.357-17.9 2.441-3.672 7.396-4.67 11.069-2.229s4.671 7.397 2.229 11.069C228.234 498.643 210.792 508 191.996 508zM320.004 508c-30.871 0-55.987-25.116-55.987-55.987a7.985 7.985 0 0 1 15.968 0c0 22.066 17.952 40.018 40.018 40.018a7.985 7.985 0 0 1 .001 15.969zM63.988 371.991c-19.932 0-38.517-10.73-48.502-28.003a55.975 55.975 0 0 1-7.485-27.984 7.985 7.985 0 0 1 15.968 0 39.995 39.995 0 0 0 5.342 19.993c7.14 12.352 20.428 20.025 34.676 20.025 7.912 0 15.561-2.304 22.12-6.663a7.985 7.985 0 0 1 8.838 13.3c-9.184 6.105-19.889 9.332-30.957 9.332z" opacity="1" data-original="#283246"></path></g></svg>