<svg xmlns="http://www.w3.org/2000/svg" version="1.1" xmlns:xlink="http://www.w3.org/1999/xlink" width="512" height="512" x="0" y="0" viewBox="0 0 512 512" style="enable-background:new 0 0 512 512" xml:space="preserve" class=""><g><filter id="a" width="367.5" height="342.1" x="18.1" y="102.2" filterUnits="userSpaceOnUse"><feFlood flood-color="#fff" result="back"></feFlood><feBlend in="SourceGraphic" in2="back"></feBlend></filter><mask id="c" width="367.5" height="342.1" x="18.1" y="102.2" maskUnits="userSpaceOnUse"><g filter="url(#a)"><path fill="url(#b)" d="M42.4 315.1c10.9-.3 21.9.1 32.8.4 15.5.5 31 1.1 46.6 1.5 15.1.4 30.2.7 45.3 2.1 11.3 1 26.1 1.8 27.9 15.9 2.2 16.2 6.5 32 5.8 48.5-.4 8.1-1.4 16.2-1.6 24.3-.1 4.2.1 8.4 0 12.7-.1 3.2-.4 6.4-.5 9.6-.2 4.8-.2 9.7-1.8 14.3L408.3 330 290.9 75.1 18.1 320.3l1.4 1c5.9-5.2 15.4-5.9 22.9-6.2z" mask="url(#c)" opacity="1" data-original="url(#b)"></path></g></mask><linearGradient id="b" x1="81.637" x2="331.47" y1="392.959" y2="215.445" gradientUnits="userSpaceOnUse"><stop offset="0" stop-color="#b3b3b3"></stop><stop offset=".995"></stop></linearGradient><linearGradient id="d" x1="82.008" x2="283.381" y1="395.125" y2="252.044" gradientUnits="userSpaceOnUse"><stop offset="0" stop-color="#eac324"></stop><stop offset="1" stop-color="#fff"></stop></linearGradient><path fill="#d8a9a9" d="M462.2 291.5c-24.6 4.1-44.1 7.2-65.6 18.5-23.6 13.3-52.3 25.6-70.8 45.1-29.7 32.8 7.2 39.5 39 39.5l24.6-1.5c40-9.2 89.2-46.2 110.8-82 20.4-33.9-17.5-24.7-38-19.6z" opacity="1" data-original="#d8a9a9"></path><path fill="#c4544e" d="M482.3 189.9c-1.2-15.5-3.4-30.7-5.3-46.1-1.7-13.2-2.5-26.7-9.6-38.4-6.4-10.5-16-19.7-26.6-25.9-6-3.5-12.7-6.1-19.2-8.6-6.9-2.6-14.6-4.9-22-4.1-.8-3.1-3.6-5-6.3-6.5-4-2.2-8.5-3.6-12.9-4.8-9.3-2.5-19-4.1-28.7-4.2-12.9-.2-26.6 1.9-38.2 7.8-4.3 2.2-8.1 5.1-11.5 8.5-9.5 3.7-16.2 13-21.5 21.3-2.9 4.6-5.4 9.5-7.9 14.3-3.1 6.1-6.6 12-10.1 17.9-3.6 6.1-7.2 12.3-10.3 18.6s-5.5 12.8-7.6 19.4c-4.4 13.6-7.1 27.7-8.3 42-.7 7.9-.8 15.7-.4 23.6.4 6.8 1.2 13.5 3.4 19.9 2.1 6.2 5.2 12.1 9.1 17.3 3.6 4.8 8.1 9.4 13.8 11.4 2.3.8 3.9-2.1 1.7-3.4-.9-.5-1.8-1.1-2.6-1.7 0-1 0-2 .1-2.8.3-2.3.6-4.5.7-6.8.1-2 .2-4.1.4-6.1.2.5.5 1.1.7 1.6 1.4 2.9 2.5 5.7 3.2 8.9 1.2 5.1 2.7 9.4 7.5 12.2 5.4 3.2 12.4 4.3 18.5 4.8 6.6.6 13.2.3 19.8 0 14.4-.8 29-1.7 43.5-1.7 7.6 0 15.2.8 22.8 1.4 7.5.5 14.9-.2 22.3-1.4 7.4-1.3 15-1.5 22.4-3 5.5-1.1 10.1-3.4 13.8-7.7 3.1-3.6 4.9-8.1 6.4-12.5.6-1.8 1.2-3.5 1.9-5.3 0 .3 0 .7.1 1 .1 2.6.1 5.2 0 7.8-.3 5.7-2.2 11-5.6 15.5-.6.8-.8 1.9-.2 2.7.2.3.5.6.8.8.5.2 1 .3 1.5.2 3.3.6 7.2-1.1 10-2.4 4.2-1.9 7-4.4 9.1-8.6.7-1.4 1.3-2.8 2-4.2.3-.1.6-.3.9-.5 1-.9 2.1-1.7 3.4-2.4h.8c3.1-.1 9.3-.9 8.6-5.5 0-.3-.1-.5-.2-.7.6-.5 1.2-1.1 1.8-1.7 4.7-4.6 6.4-10.6 6.5-17 .2-7.2-.2-14.6-.5-21.8-.8-7.7-1.4-15.4-2-23.1z" opacity="1" data-original="#c4544e"></path><g fill="#b23e3b"><path d="M290 259.3c-.6-.9-1.7-1.4-2.6-.8 0-.1-.1-.1-.1-.2-.3-.9-.7-1.8-1.2-2.6-.6-.9-2.2-1-2.8-.2-.5-1.1-1-2.2-1.6-3.3.5-.4.8-1.2.7-1.9.3-.5.4-1.2.1-1.7-1-1.6-3.2-2.8-4.8-3.7-1.8-1-3.6-1.6-5.6-1.8-.7-.5-1.4-1-2.1-1.6-4.3-3.4-7.7-7.7-10-12.7-.4-.8-1.6-.5-1.4.4 1.5 5.3 4.2 9.9 8 13.9 1.9 2 4.1 3.8 6.4 5.4 2 1.4 4.4 3.4 6.9 3.8 1.4 3.7 2.6 7.3 2.6 11.4 0 4.9-1.6 9.7-2.4 14.5-.3 1.6 2.1 2.2 2.5.6.2-1 .5-2 .7-3.1h.1c5.3-1.6 6.9-9.5 9.4-13.7 1-1.7-1.2-3.5-2.8-2.7zM255.9 234.8c0 .9.2 1.9.6 2.9-.5.2-.8.6-.9 1.3-.3 4.3.1 8.7.5 13 .3 4.6.8 9.2 1.4 13.9.2 1.9 2.6 2 3.2.3 1.8-5.2 1.9-11.3 1.7-16.7-.2-5.2-2.9-10.3-5.3-14.9-.4-.8-1.1-.4-1.2.2zM264.3 191.6c.4.5 1.2.6 1.6.1 1.5-1.7 1.1-3.9 1-6.1-.1-3-.5-6-.6-9-.1-2.9 0-5.8.1-8.7 0-2.6.2-5.5-.7-8-.4-1-1.8-1-2.1.1-.7 2.3-.5 4.9-.5 7.2-.1 2.9-.3 5.8-.2 8.6.1 2.7.3 5.4.5 8.1 0 2.5-.5 5.7.9 7.7zM363.3 148.9c-.4-3.6 1.2-6.4 1.7-9.8.1-1-1-2.2-2-1.4-3 2.5-3.7 6.9-3.7 10.6 0 4.3 1.8 9.1 4.5 12.4 1.6 2 4.6.1 3.4-2.2-1.8-3.2-3.4-6-3.9-9.6zM334.1 110.3c-8.6 1.1-13.7 8.6-16.3 16.1-1.5 4.1-2.2 8.5-2.8 12.8-.6 4.2-1.3 8.5-1 12.7.1 1.4 2 1.5 2.4.2 1-3.6 1-7.4 1.5-11.1.5-4 1.2-7.9 2.3-11.8 2.3-8 6.7-13.9 14.3-17.3.7-.3.6-1.7-.4-1.6zM312.5 126l.3-.6c.4-.8-.6-1.5-1.2-.8l-.4.4c-.4 0-.7.1-1 .5-6.2 8.8-12.6 20.9-10.9 32 .1.5.6.9 1 .9.7.6 2.1.4 2.3-.7.4-2.6.5-5.3.8-7.9.4-2.8 1.1-5.6 1.9-8.3.6-2 1.4-3.9 2.3-5.8 1.6-2.8 3.3-5.6 4.8-8.5.2-.5.2-.8.1-1.2zM296.5 134.8c-2.4 3.3-4 7.5-5.2 11.4-.7 2.2-1.1 4.4-1.3 6.6-.2 2-.6 4.2.8 5.8.3.3 1 .3 1.3-.1 1.1-1.4.7-3 .8-4.7.1-2.2.5-4.3 1-6.4 1.1-4 3.5-7.7 4.4-11.7.2-.9-1.2-1.8-1.8-.9zM435.3 159.6c-.1.2-.1.3-.2.5-.2 4.1.8 8 1.4 12 .3 2.3.5 4.6.3 6.8-.1 1.7-.9 3.4.2 4.9.3.4.7.6 1.1.4 1.3-.5 2-1.6 2.3-3.1.7.1 1.3-.2 1.7-1 1.3-2.7.8-6.1.4-8.9-.5-3.6-1.5-7.1-2.7-10.5-1.1-3.2-2.4-6.3-4.1-9.3-1.3-2.3-2.4-6-4.8-7.4-.3-.2-.9 0-.9.4-.2 2.3 1.3 5 2.2 7.1 1.2 2.7 2.2 5.4 3.1 8.1zM455.7 227c2.6-1.9 4.4-4.6 5.7-7.4.7-1 1.2-2.1 1.3-3.2.4-1.1.8-2.3 1.1-3.5.5-1.9.4-4.6 1.2-6.3.3-.5-.6-.9-.8-.4-.6 1.5-1.9 2.5-2.7 4-1 1.8-1.8 3.7-2.6 5.6-.1.2-.2.3-.2.5-.7.6-1.3 1.2-1.9 1.8-1.7 1.6-3.8 2.9-5.9 3.9-3.6 1.9-7.9 2.9-12 2.8-.2-.2-.4-.4-.7-.5.9-2.9 1.9-6.7.9-9.4-.5-1.4-2.4-1.5-3.1-.2-.5.9-.7 1.8-.8 2.7-.6-.2-1.4.2-1.6.9-.7 2.4-.7 4.8-1.7 7.1-1 2.4-2.4 4.7-3.9 6.9-3 4.4-6.3 8.6-8 13.7-.6 1.7 1.3 2.7 2.7 2.4l.9-.3c-.4 1.3-.6 2.5-.4 3.7.1.5.6.9 1.1.6 2.4-1.6 3.6-5.3 4.9-7.7 1.7-3.1 3.3-6.4 4.8-9.6.1-.2.2-.4.2-.5.5-.5 1.1-1.1 1.7-1.6 2.2-1.8 4.3-2.7 7.1-2.9 4.7-.5 8.9-.4 12.7-3.1z" fill="#b23e3b" opacity="1" data-original="#b23e3b"></path><path d="M482.4 184.4c-.7-5.5-1.4-11.1-2.1-16.6-.4-2.9-.7-5.7-1-8.6-.3-2.6-.3-5.4-1.1-7.9-.3-1-1.8-.9-2 .1-1.1 4.7-.3 10.1.1 14.9.4 5.3 1 10.5 1.5 15.7 1.1 10.5 2.2 21 2.1 31.6-.1 8.5-1.3 16.7-2.8 25-.1.6-.2 1.1-.3 1.8l-1.8 4.5-1.2 2.4c.6-2.1.7-4.4.9-6.2.4-4.7-.1-9.3-.7-14 0-.1 0-.2-.1-.3.4-3.5.6-7.1.2-10.6-.1-.8-1.2-.7-1.2.1-.1 6.7-1.8 13.4-2.6 20.1-.4 3.2-.5 6.4-.9 9.5 0 .3-.1.5-.1.8.5-6.6-.6-13.4-1.6-19.8-.1-.9-1.4-.9-1.5.1-.3 5.4-.6 10.8-1 16.1-.3 5-1.1 9.7-3.6 14.1-1.9 3.4-4.7 6.2-7.7 8.6-3.3 2.6-7.2 4.2-10.4 6.7-1.8 1.4-.6 4.7 1.9 3.9 3.9-1.4 7.8-4.3 11.1-6.8 3.5-2.7 6.6-5.9 8.9-9.7.2-.3.4-.6.5-.9.3.7 1 1.1 1.9.9s1.7-.6 2.5-1.3c.5.3 1.1.5 1.8.3 2.4-.6 4.2-2.5 5.5-4.9 1.2-.9 2.2-2.4 2.9-3.5 1.5-2.2 2.4-4.9 3.1-7.5 1.3-4.8 2-11.2.4-16-.1-.2-.1-.3-.2-.4.3-2.9.6-5.8.7-8.7.5-11.3-.8-22.5-2.1-33.5z" fill="#b23e3b" opacity="1" data-original="#b23e3b"></path><path d="M448.4 237.6c-.3 4.4-1.2 8.7-2.4 12.9-.6 2.1-1.4 4.2-2.1 6.3s-1.6 4.2-1.3 6.5c.1.8 1.1 1.3 1.7.6 1.3-1.6 1.8-3.6 2.5-5.6.8-2.4 1.6-4.7 2.3-7.1 1.4-4.5 2.4-9.3 1.1-13.9-.3-1.1-1.8-.6-1.8.3zM440.8 112.6c2.6 5.3 4.3 10.7 5.9 16.4.8 2.9 2.2 5.5 3.2 8.4 1 2.8 1.6 5.7 2 8.7.3 2.9.2 5.9 0 8.9-.2 2.8-1.4 5.5-1.3 8.3 0 1.1 1.3 1.2 1.9.4 1.5-2.3 1.9-5.4 2.3-8 .4-2.7.6-5.3.4-8-.2-5.3-1.7-11-4.2-15.7-2.8-5.3-3.9-11.1-6.4-16.5-2.4-5.1-5-9.7-6.4-15.2-.1-.5-.5-.6-.8-.5-.3 0-.7.2-.8.6-.2 1.8.6 3.8 1.1 5.5.9 2.1 2 4.4 3.1 6.7zM457.7 144.7c.5 1.9.8 3.7 1 5.6.1 1.4-.3 3 .3 4.3.2.5 1 .8 1.4.3 1.8-2.2.6-6.3.1-8.7-.8-3.9-2.3-7.5-3.9-11.1-.4-.8-1.6-.4-1.4.4.8 3.1 1.7 6.1 2.5 9.2zM305.3 109c1.2-1.6 1.8-3.4 3-5 1.4-1.9 3-3.5 4.7-5.1 1.8-1.7 3.6-3.3 5.5-4.8 1-.9 2.6-1.8 2.6-3.3 0-.2-.2-.5-.4-.5-1.6-.2-3 1.6-4.1 2.5l-5.7 5.1c-2.5 2.5-7.1 6.8-6.7 10.7 0 .5.7.9 1.1.4zM306.4 100.8c2.9-3.4 7.2-5.3 10-8.7.2-.3-.1-.6-.4-.5-3.8 2-7.6 5.1-10.3 8.5-.5.5.3 1.2.7.7zM366.8 98.7c-1.8 6-4.6 11.6-5.9 17.8-.7 3.2-1 6.6-1.4 9.8-.4 3-1.2 6.2-1 9.2 0 .6.8.7 1.1.2 1.4-2.4 1.6-5.3 2-8.1.4-3.3.8-6.6 1.3-9.8 1-6.5 4-12.4 5.2-18.8.2-.8-1.1-1.1-1.3-.3zM359.9 109.7c.1-.6-.8-.9-1-.4-1.6 3.9-3.6 8.8-2.4 13.1.2.6 1.1.6 1.3-.1.4-1.9.4-4 .7-5.9.3-2.3.8-4.5 1.4-6.7zM287.8 103.9c1.3-1.1 2.1-2.9 3.2-4.3 1.2-1.7 2.7-3 4.4-4.3.4-.3.1-.9-.4-.7-2 .5-3.4 2.2-4.6 3.8-1.2 1.5-2.7 3.4-3.1 5.3-.1.2.3.4.5.2z" fill="#b23e3b" opacity="1" data-original="#b23e3b"></path></g><g fill="#e08c6e"><path d="M282.2 110.2c-6.6 4.5-10.5 13.8-12.7 21.3-2.4 8.5-3 17.3-4.4 26-.4 2.4 3.4 3.3 3.7.8 1.2-8.3 1.9-16.7 3.7-24.8.9-3.9 2-7.7 3.7-11.4 1.9-4 4.7-7.3 6.7-11.2.3-.5-.3-1-.7-.7zM299 134.7c-.3.4-.5.7-.7 1.1-.3 0-.6.1-.7.5l-.9 3.9c-.6 1.9-1.2 3.7-1.7 5.6-1.1 4.2-1.6 8.5-.4 12.7.4 1.6 3 .8 2.5-.8-.3-1-.5-2.1-.6-3.1.1-2 .3-4 .6-6 .2-1.3.4-2.5.6-3.8.4-1.5.9-3 1.3-4.5.5-1.7 1.3-3.4 1.1-5.2-.1-.5-.7-.9-1.1-.4zM313.5 125.4c-.1-.8-1.3-.9-1.4-.1-.4 4.6-.3 9.2-.1 13.8.2 4.7-.1 9.6.6 14.2.2 1.3 2.4 1.8 2.6.2.5-4.5-.4-9.2-.7-13.7-.4-4.8-.7-9.6-1-14.4zM364.5 158.5c-1.7-1.1-4-1.4-5.9-2-2-.6-3.9-1.2-5.8-2.1-3.9-1.8-7.1-4.6-9.5-8.1-3.2-4.6-4.9-10.5-5.9-16-1.1-6-1.5-12.5-1.8-18.6 0-.7-1.1-.8-1.2-.1-.4 3.1-.9 6.1-1.1 9.2-.3 3.5.2 7.1.7 10.5.9 5.9 2.8 12 6.1 17.1 2.6 3.9 6.3 7 10.5 9.1 3.8 2 9.6 4.3 13.9 3.3 1-.2.8-1.8 0-2.3zM376.7 154.1c-1.6-1.4-3-3-4.3-4.6s-2.5-3.4-3.6-5.1c-.9-1.3-1.6-3.2-2.8-4.2-.3-.3-.8-.1-.9.3-.3 1.5.6 3.1 1.3 4.4 1 2.1 2.5 4.1 3.9 6s3 3.6 4.7 5.2c1.2 1 2.6 2.3 4.3 1.9.4-.1.7-.7.5-1.1-.8-1.2-2.1-1.9-3.1-2.8zM406.8 176.9c-2-2.2-3.5-4.6-5.1-7.1-3.2-5-5.5-10.5-7.3-16.2s-3-11.6-3.9-17.5c-.8-5.5-.8-11.3-2.4-16.7-.2-.8-1.5-.7-1.6.1-1 5.7 0 11.8.7 17.5.8 6 2 12 3.8 17.8 1.8 5.7 4.2 11.3 7.4 16.4 1.5 2.5 3.4 4.8 5.4 7 2 2.3 4.3 5.1 7.2 6.3.9.4 2-.6 1.4-1.5-1.5-2.4-3.8-4.1-5.6-6.1z" fill="#e08c6e" opacity="1" data-original="#e08c6e"></path><path d="M419.2 183.2c-1.7-3.8-3.2-7.6-5-11.3-1.7-3.5-3.4-7.4-6.1-10.3-.6-.7-1.6.2-1.4.9.9 3.5 2.6 6.8 3.9 10.1 1.3 3.4 2.7 6.8 4.1 10.1 2.8 6.7 6 13.3 8.1 20.3.1.2.1.5.2.7-.2.1-.4.2-.5.4-1 3.4-.2 7.3.2 10.8.2 2 .4 4 .5 6.1.1 1.9-.2 3.8.6 5.6.1.1.1.2.2.3-.2.8-.3 1.6-.5 2.4-.3 1.3-.8 2.6-.8 4-1.1 2-2.5 3.9-3.5 6-.3.7.3 1.6 1.1 1.3 5.5-2 8-8.5 8.9-13.8 1.2-7.3.3-14.7-1.5-21.9-1.8-7.6-5.3-14.6-8.5-21.7zM445.1 240.8c-.2-.6-1.4-.7-1.5.1-.4 4.7 1.8 8.9 2.5 13.5.3 2.6 0 5.3-.3 7.8-.4 3.2-1 6.5-2.1 9.5-.5 1.2-1 2.5-1.8 3.6-.7.9-1.6 1.3-2.4 2.1-1.3 1.2 0 3.2 1.5 3.2 2.8-.1 4.8-3.4 5.8-5.6 1.5-3.2 2.3-6.8 2.8-10.3.5-3.1.7-6.4.4-9.5-.5-4.9-3.1-9.8-4.9-14.4zM470 231.1c-.2-.5-1.1-.3-1.1.2-.2 2.2.2 4.5.6 6.7.4 2.5.6 5.1.7 7.6.1 2.6-.2 5.2-.8 7.7-.6 2.6-2.4 4.4-3.3 6.7-.4 1.1.7 2.3 1.8 1.6 4.1-2.6 4.9-9.8 5-14.2.1-3-.3-6.1-.8-9-.5-2.3-.9-5-2.1-7.3zM476.6 136.5c-.9-4.4-2.1-8.8-3.5-13-.3-1-.6-1.9-.9-2.8.1-.6.1-1.2-.1-1.9-.3-1.4-1.5-2.9-2.3-4.1l-.1-.1c-.4-1-.9-1.9-1.5-2.8-2.2-3.9-4.9-7.4-7.6-11-1.7-2.2-3.4-4.5-5.2-6.8-.5-.8-1-1.5-1.5-2.2-.2-.3-.5-.5-.8-.7-2.7-3.2-5.6-6.3-8.8-8.9-3.3-2.6-6.8-4.9-10.4-7-3.4-1.9-7.4-4.2-11.3-4.7-.6-.1-.9.7-.4 1 3.2 2 6.5 3.7 9.7 5.8 3.5 2.3 6.9 4.8 10.1 7.4 2.9 3.6 7.7 8.7 3.8 12.7-2.9 3-8.8 3.1-12.7 3.5-7.1.7-14.1 1.5-21.3 1.3-4-.1-8-.3-12-.8-3.3-.4-7-1.3-10.3-.9-.3 0-.5.5-.1.7.2.1.3.1.5.2 1.5 2.6 4.6 4.2 7.3 5.4 3.4 1.5 7 2.6 10.5 3.4 7.9 1.9 16.1 2.7 24.2 2.9 3.9.1 7.6-.6 11.4-1.4 4-.9 8.2-2.1 12.3-1.4 3.4.6 6.4 2.3 9.1 4.3.5.4 1 .8 1.4 1.2 1.5 2.7 2.8 5.6 3.9 8.6 1.4 4 2.6 8 3.5 12.1.9 4 1.5 8 2.3 12 .2 1.1 1.7.6 1.7-.3.4-3.7-.1-7.9-.9-11.7zM357.2 97.3c.4 0 .8-.1 1.2-.2.8-.3.8-1.3.1-1.8-1-.6-2.2-.7-3.4-1-1.6-.3-3.2-.8-4.8-1.3-3.3-1-6.3-2.4-9.4-3.9-5.2-2.4-10.6-5.6-14.2-10.1-2.7-3.3-4.5-7.5-4.7-11.8 0-.7 0-1.4.1-2 .1-.1.1-.2.2-.3.8-1 1.7-2 2.7-2.7 7.4-2.7 15.1-4.5 23-5.8 4.2-.7 8.3-1.2 12.6-1.1 4.4.1 8.7 1 13 2.1 4.2 1.1 8.4 2.6 12.5 4.2 3.8 1.5 8.1 2.8 11 5.8 1.5 1.6 3.7-.9 2.3-2.5-2.1-2.4-4.8-3.7-7.6-5-3.3-1.5-6.7-3-10.1-4.3-6.6-2.4-13.3-4.1-20.3-4.6-2.3-.1-4.7-.1-7.1.1-2.1-3.5-8.4-2.3-11.7-1.9-5.7.7-10.8 2.2-16.1 4.6-2 .9-3.9 1.8-5.7 2.8-3.9-.3-7.3 1.1-10.6 2.9-3.1 1.7-6.2 3.6-9 5.9s-5.4 5-7.7 7.8c-1.6 1.9-4.5 5.2-4.2 8-.8.9-1.7 1.9-2.6 2.8-.7.3-1.3.7-1.9 1.1-.6.3-.6 1-.4 1.5-2.2 2.4-4.4 4.9-6.5 7.5-4.2 5.1-7.6 10.8-10.4 16.8-2.2 4.6-4.1 9.2-6.2 13.8s-4.5 9-6.8 13.4c-2.3 4.5-4.6 9.1-6.4 13.8-1.9 4.7-2.8 9.7-4.1 14.5-1.3 4.6-3.6 8.9-5.3 13.4-1.6 4.2-2.5 8.5-2.9 13-.9 9.9-1.1 20.2-.1 30.1 0 .1.1.2.1.3.1 1.6.3 3.1.5 4.7 1.3 9.1 4.2 18.3 8 26.7 1.7 3.9 3.9 7.5 6.5 10.9 2.5 3.2 5.8 6.9 9.7 8.3 1.5.6 2.3-1.6 1.3-2.6-1.4-1.4-3.1-2.5-4.5-3.8-1.7-1.5-3.1-3.2-4.5-5-2.5-3.3-4.4-7.1-6.1-10.9-3.5-8-6.1-16.7-7.2-25.4-2.2-16.7.5-34 4.6-50.4.8-1.6 1.6-3.2 2.3-4.9 1.4-3.3 2.3-6.8 3.2-10.2 2-7.3 5.2-14 8.7-20.7 3.4-6.6 6.8-13.1 9.8-19.8 2.8-6.4 5.7-12.6 9.6-18.4 3.8-5.6 8.6-10.1 13-15.2.2-.2.4-.5.6-.7 1-.4 2-.8 3.1-1.2 3-1.2 6-2 9.3-2.1 1.4 0 2.7.2 4.1.5.2.1.5.2.7.3s.3.1.5.1c1.7.6 3.4 1.3 5 2.2.4.3.8.7 1.1 1 .4.3.9.5 1.5.4 1.6.9 3.2 1.8 4.8 2.5 2.8 1.3 5.8 2.1 8.7 3.1 3.1 1.1 6.2 2.1 9.3 3 5.6 1.8 11.7 2.9 17.8 1.7z" fill="#e08c6e" opacity="1" data-original="#e08c6e"></path></g><g fill="#fff6f1"><path d="M421 200.7c-1.2-7.9-5.9-13.5-11.9-18.4-2.9-2.4-5.8-4.8-8.5-7.5-2.6-2.6-4.4-5.7-6.6-8.6.4-1-.1-2.3-1-2.8-1.7-1-4.5-1.2-6.4-1.8-2.8-.9-5.4-2-8-3.3s-5.2-2.9-7.3-4.9c-1-.9-1.8-1.9-2.6-3 0-.1-.1-.1-.1-.2-.4-1.1-.9-2.1-1.6-2.8-.1-.1-.1-.2-.2-.3s-.2-.2-.3-.2c-.2-.2-.4-.3-.6-.5-.6-.4-1.3.2-1.3.8 0 2.8.9 6 1.5 8.7.4 1.6 1 3.1 1.8 4.4-1.5 0-3 .2-4.4.1-3.3-.1-6.5-.5-9.7-1.2-5.1-1.1-9.6-3.2-13.9-5.8l-.6-.9c-1.4-2.4-2.5-5-3.5-7.5-1.1-2.8-2.7-5.4-4-8.2-3-6.4-1-13.2.2-19.8 0-.2 0-.4-.1-.6.1-.3.1-.6.1-.9 0-.7-.8-.9-1.2-.6-2.8 1.6-4.7 5.4-6.4 8-2.4 3.7-4 7.5-5.2 11.6-1.3 4.5-2.1 9.2-2.5 13.9-.2 2.4-.3 4.8-.3 7.2 0 1.2-.1 2.5-.1 3.7-2.8-2.7-4.1-6.9-5.1-10.6-.7-2.9-1.1-5.9-1.2-8.9-.1-2.2.6-4.9 0-7-.1-.4-.7-.6-1-.4-2 1.4-2.3 4.7-2.5 7-2.5 5.8-2.9 12.7-3.7 19-1.1-.1-2.3 0-3.1 0-1.6 0-3.3 0-4.9.2-.2-.2-.5-.3-.8-.3-4.1-.6-8.1.1-12.1.7-4.3.7-8.8 1.2-13.1.9-.8 0-1.2 1.2-.6 1.6.2.1.3.2.5.3-1.1 1.9-1.3 4.7-1.7 6.7-.7 2.9-1.1 5.8-1.1 8.8 0 1.4.3 2.8.6 4.2-.7 2.2-.8 4.3-.6 6.8.1 1.6.2 3.2.2 4.8 0 .3 0 .7-.1 1-4 2.7-6.4 7.6-8.2 11.9-2.2 5.3-3.7 12-2 17.6 2.1 6.8 8.5 11.3 14.2 14.9 2.7 1.7 5.4 2.9 8.4 4 1.6.6 3.2 1.1 4.8 1.7-.2.2-.3.4-.5.6 8.4 2.2 16.7 4.9 24.7 8.1 5.9 0 11.7-.2 17.6 0 4.3.1 8.6.6 12.8 1l2.7.3c.3 0 .5 0 .7.1h.1c1.5.1 3 .2 4.6.2 6.9 0 13.8-1 20.6-2.2.3-.1.5-.1.6-.1h.1c.9-.2 1.8-.3 2.6-.5 1.5-.3 3-.6 4.6-.9.4-.1 3.4-.6.8-.1 3.9-.7 7.9-1.5 11.8-2.2 1.8-.3 3.6-.6 5.4-1 .2 0 1.4-.3 1.8-.3l1.8-.3c3.2-.6 6.3-1.3 9.4-2.2 2.6-.8 5.3-1.6 7.9-2.4.2-.1.4-.1.6-.2h.1c1.2-.3 2.3-.6 3.5-.9 3.3-2.9 4.1-11.4 4-14.5-.1-4-.6-8-.4-12.1.2-4.5.6-9.2-.1-13.9zM465.4 175.7c-4.6-3.9-10.5-4.3-16.2-2.9-2.3.6-8.1 3.8-10.9 7.2-.6 0-1.2.4-1.4 1.1-.7 3.3-.9 6.5-1.1 9.9-.2 3.7-.6 7.2-1.2 10.9-.9 5.4-2.6 12.2.3 17.2 2.2 3.7 7.1 4.2 11 3.8 5-.6 9.9-2.6 13.9-5.6 4.3-3.3 7.1-7.8 8.5-13 1.3-5 2.5-10.2 2.6-15.4.2-5.1-1.6-9.9-5.5-13.2z" fill="#fff6f1" opacity="1" data-original="#fff6f1"></path></g><path fill="#f9a5b4" d="M398.5 239.7c-9.8 2.4-20.3-1.7-22.2-9.5-1.9-7.7 4.6-15.6 15.4-18.5 9.7-2.7 20.9-1 23.8 9.5 3 10.7-7.2 16.2-17 18.5zM274.8 213.5c-7.7-3.2-16.9-2.7-20 6.3-.1.2-.1.4-.2.6.6 5.3 3.3 10.1 6.6 14.3 1.9 1.2 4 2.2 6.1 3 7.8 2.9 16.7.2 18.7-6.5 2.1-6.6-2.6-14.1-11.2-17.7z" opacity="1" data-original="#f9a5b4"></path><g fill="#f34d65"><path d="M390.1 225.5c-.5-.1-1.1.2-1.2.7-.1.3-.1.6-.2.9-.1.4-.3.7-.4 1.1-.1.5.1 1 .5 1.2.6.3 1.1 0 1.4-.4.5-.7.8-1.8.6-2.6 0-.4-.2-.7-.7-.9zM394.1 226c0 .4-.1.8-.2 1.2-.1.5-.2.9 0 1.4.2.3.5.4.8.3 1.2-.2.9-2 .8-2.9 0-1-1.3-1-1.4 0zM402.2 224.7c-.2-.9-1.7-.8-1.8.1-.1.4-.2.8-.3 1.1-.2.5-.5 1.2-.1 1.7.2.2.4.4.7.4.7-.1 1.1-.7 1.3-1.4.3-.6.4-1.2.2-1.9z" fill="#f34d65" opacity="1" data-original="#f34d65"></path></g><g fill="#f34d65"><path d="M275.1 225.9c.4-.1.9.3.9.8 0 .3.1.6.1.8.1.3.2.7.3 1 .1.4-.2.8-.5 1-.5.2-.9-.1-1.1-.5-.3-.6-.5-1.6-.3-2.3 0-.4.2-.7.6-.8zM271.8 225.9v1c.1.4.1.8-.1 1.2-.2.2-.4.3-.7.2-.9-.3-.6-1.9-.5-2.6.3-.8 1.3-.6 1.3.2zM265.3 224.1c.2-.8 1.4-.6 1.5.2 0 .3.1.7.2 1 .1.5.3 1.1 0 1.5-.1.2-.4.3-.6.3-.6-.1-.8-.7-1-1.3s-.2-1.1-.1-1.7z" fill="#f34d65" opacity="1" data-original="#f34d65"></path></g><g fill="#f2f5fe"><path d="M404.8 219s-.1 0-.1-.1c.3.2.3.2.1.1zM405 214.4c-.8-.3-1.8-.2-2.2.7-.4.8-.1 1.8.7 2.2l.1.1v.1l.3.7c.1.2.2.3.4.5l.6.3c.3.1.7.1 1 0 .1 0 .1-.1.2-.1.6-.3.9-.8 1-1.6 0-1.1-1-2.4-2.1-2.9zm-1.4 3.1c.1.1.1.1 0 0z" fill="#f2f5fe" opacity="1" data-original="#f2f5fe"></path></g><g fill="#f2f5fe"><path d="M263.6 218.9h.1-.1zM262 217.2c0 .6.2 1.1.7 1.5s.1.1.1.1c.2.1.5.2.8.1.2-.1.5-.2.5-.3.2-.2.2-.3.3-.4l.3-.6s.1 0 .1-.1c.7-.3 1-1.2.7-1.9-.3-.8-1.1-1-1.8-.8-.8.3-1.7 1.3-1.7 2.4zm2.7.4c0 .1 0 .1 0 0z" fill="#f2f5fe" opacity="1" data-original="#f2f5fe"></path></g><g fill="#fdb8a9"><path d="M316.9 157.4c.3-1.1.7-2.2 1-3.2-.2 1.9-.1 3.9.6 5.5.3.8 1.6.9 1.8-.1.4-1.5.2-3 .2-4.5 0-2.2.1-4.4.5-6.6.3-1.8.7-3.5 1.2-5.3.7-1.8 1.5-3.6 2.3-5.3.8-1.9 1.5-3.8 2.2-5.6-.3 7.8-.1 16.6 5.7 22.1 2.6 2.5 6.1 3.8 9.5 4.8 3 .8 7.3 1.8 10.3.6.4-.1.3-.6 0-.7-2.9-.9-6.2-.6-9.3-1.3-3.4-.7-6.8-2.1-9.5-4.4-3.3-2.8-4.5-7.6-5.2-11.7-.6-3.5-.9-7.3-.9-11 .3-.9.7-1.8 1-2.7.6-1.5 1.2-3 1.9-4.5.7-1.6 1.9-3.1 2.1-4.9.2-1.3-1.2-2.6-2.5-1.7-.9.6-1.6 1.5-2.2 2.5-3.4 3.2-5.2 8-6.6 12.3-.9 2.8-1.7 5.7-2.5 8.5-.7 2.3-2.1 5.1-1.8 7.5 0 .2.1.4.2.6-.7 3-1 6-1.1 9.1-.1.6.9.6 1.1 0zM291.7 163.4c3.1 1.4 7.8.1 10.8-.3.9-.1 1.5-.8 1.6-1.5h.6c.6-.2.8-.7.8-1.2.1-1.8 0-3.5-.4-5.2v-.1c.3-1.4.5-2.8.9-4.1.8-2.6 1.9-5.1 3-7.6.5-1.2 6.1-11.2 2.2-10.9-2.1.1-2.6 2.6-3.4 4.2-1.1 2.4-2.2 4.7-3.2 7.1-1.7 4.3-3.9 10-2 14.5.1.3.4.5.6.6 0 .2 0 .5-.1.7-.1-.1-.3-.1-.4-.1-2.6-.6-5.3-.6-8-.8-.4 0-.8 0-1.1.2h-.1c-.3-.4-.7-.6-1.3-.5-2.6.4-5.1.7-7.8.8-2.4.1-5 .1-7.1 1.3-3.1-.1-6.3-.3-9 1-.7.3-1.1 1.6-.2 2 4 1.5 8.8 1.1 13 1.2 3.1-.2 7.4-.1 10.6-1.3zM459 189.9c-.9-2.2-3.3-2.7-5.2-1.8-.9.4-1 1.4-.6 2 0 .1-.1.2-.1.2-2.4.5-4.8 2.8-5.9 4.2-2.3 3.1-3.9 7.4-2.9 11.2.3.9 1.2 1.5 2.2 1.5 5.8-.1 10.1-5.8 12-10.7.8-2 1.4-4.4.5-6.6zM438.6 184.4c-.3-.7-1.2-.7-1.4.1-1.3 4.9-.3 10.4-.1 15.4-.9 2.9-1.5 5.8-2.2 8.8-.5 2.1-1.5 5.3-.8 7.5-.2.5-.4 1-.5 1.5-.5 1.9 2 3 3.3 1.7 3.9-4.1 4.2-11.6 4.2-16.9 0-3.1-.3-6.3-.7-9.4-.4-2.9-.7-5.9-1.8-8.7zM422.3 218.3c.7-4.2-.5-9.2-1.9-13.1-1.5-4-4.3-7.3-7.2-10.3-2-2.1-4.3-3.9-6.4-5.9-2.5-2.4-4.8-5.1-6.9-7.9-3.9-5.2-7.1-10.8-10.6-16.2 1.3 0 2.6 0 3.9-.1 1.2-.1 1.1-1.9-.1-1.9-8.4.5-17.3-2-23.1-8.1-.1-1.1-.2-2.2-.2-3.2-.1-2.3.2-6.4-2.3-7.4-.5-.2-1.2-.2-1.6.3-1.5 1.9-.3 5.1-.1 7.4.2 2.8-.1 6.1 1.4 8.7.7 1.1 2.1.6 2.5-.5.3-1 .4-2 .5-3.1 4.6 4.9 11.5 7.5 18.3 7.9 5.5 10.9 12.3 20.7 21.3 29 3.5 3.2 6.5 6.7 8.5 11 1 2.1 1.6 4.5 2 6.8.2 1.3.3 2.7.5 4 0 .1-.1.1-.1.2-1 4.3-1.3 8.3-3.5 12.3-1 1.7-2.2 3.2-3.6 4.6-1.1.6-2.1 1.2-3.2 1.8-4.2 2-8.6 3.5-13.1 4.9-9.4 2.9-19 5.4-28.6 7.3-5.1 1-10.3 1.8-15.4 2.3-2.9.2-5.9.5-8.8.7-3.4.2-6.7.4-10.1.5-2.8.1-5.5.2-8.3.3-3.8 0-7.5-.1-11.3-.3-7.5-.4-14.8-1.3-22.1-3.1-2.7-.7-5.2-1.5-7.8-2.3-1.7-.6-3.8-1.2-5.6-.7h-.1c9.6 2.3 19 5.3 28.2 9 5.9 0 11.7-.2 17.6 0 4.3.1 8.6.6 12.8 1l2.7.3c.3 0 .5 0 .7.1h.1c1.5.1 3 .2 4.6.2 2.5 0 5-.1 7.5-.3-3-.1-5.9-.3-8.9-.5 8.5-.5 17.1-1.4 25.5-3 1.8-.3 3.5-.7 5.3-1.1.2.4.5.8.9.9 3.6-.7 7.1-1.3 10.7-2 1.8-.3 3.6-.6 5.4-1 .2 0 1.4-.3 1.8-.3l1.8-.3c3.2-.6 6.3-1.3 9.4-2.2 3.7-1.1 7.4-2.3 11.2-3.2.1-.1.1-.2.2-.2l.1-.2c4-2 7-5.1 4.7-9.8.2-.3.3-.6.5-.9.3-.8-.3-1.6-1.2-1.4-.3.1-.5.2-.8.3 1.8-3.6 2.7-7.3 2.3-11.3z" fill="#fdb8a9" opacity="1" data-original="#fdb8a9"></path><path d="M311.6 213c-1.1-.4-2.5-.4-3.6 0-.9-.3-2.1.6-1.7 1.7.9 2.6 3.9 2.7 5.8 1.1 1.1-.9.9-2.3-.5-2.8z" fill="#fdb8a9" opacity="1" data-original="#fdb8a9"></path></g><path fill="#ffffff" d="M407.1 246c-1.1.3-2.1.7-3.2 1-4.2 1.1-8.6 1.5-12.8 2.2-6.3 1.1-12.6 2-19.1 2.6-.6.1-.9.1-1 .1-1.3.2-2.6.4-3.9.5-1.6.2-3.2.4-4.9.6-2.9.3-5.8.6-8.7.8-10.5.8-21 .8-31.5 1.2-8 .3-17.3.3-25.1-2.9h-.1l-.1-.1c-.2-.1-.5-.2-.7-.3-.3 0-.5 0-.8.2-1.8 1.2-3.1 2.8-4.1 4.6-.2.2-.4.4-.7.5-.6.5-.7 1.2-.5 1.8-1.1 2.8-1.7 5.9-2.1 8.9-.9 6.5-.7 13.6-3.7 19.7-.5 1.1-.3 2.5.8 3.2 4.3 2.3 8.7 4.6 12 8.3.7 1.5 1.6 3 2.7 4.3.8 1 2.3.7 3.1-.1 2.6 1.8 5.9 2.8 8.9 3.6 4.9 1.2 9.9 1.7 14.8 2.7 7.8 1.5 15.5 3.4 23.1 5.7 7.4 2.3 15 3.2 22.8 2.8 7.4-.4 14.6-2.3 21.7-4.6 5.4-1.8 11.5-3.9 15.5-8.1s5.4-10.5 6.7-15.9c1.2-5.2 2.3-10.3 2.2-15.7.1-9.9-3.3-21.1-11.3-27.6z" opacity="1" data-original="#ffffff"></path><g fill="#d7d7f4"><path d="M405.2 251.3c0-1.2-.8-2.5-2.2-2.4-1 .1-1.9.3-2.7.7-.5-.1-1 0-1.5.3-3.1 1.9-5.2 4.8-6.8 8-.8.5-1.7.9-2.5 1.3-.2-.1-.3-.1-.5-.1-2 .2-3.7 1.2-5.5 2-2.4 1-4.9 1.9-7.4 2.5-4.5 1.1-10.2 1.5-13.6-2.3-1.2-1.3-3.2-.5-3.7 1-1.3 3.8-.3 7.4 3.6 8.7v.1c-2.6 4.3-3 11.7-.6 16.8v1.7c0 1.5 1.6 2.3 2.9 2 .1.1.2.1.2.2.6.4 1.2.4 1.8.2.1.2.2.3.3.5.2.3.4.5.7.6.6.8 1.3 1.6 2 2.3.2.3.6.6.9.7.4.3.9.5 1.4.7 2.2.8 3.8-2.7 1.7-3.8-.3-6.5-2.4-13.4-1.3-19.8.7-.6 1.4-1.2 2.3-1.8.8-.5 1.8-1 2.7-1.5 3.9-.9 7.7-1.8 11.5-2.9 3-.9 5.9-1.9 8.7-3.4 2.4-1.2 5.7-3 6.8-5.5.2-.4.1-.8 0-1.2.6-.7 1.1-1.5 1.6-2.4.7-1.1.2-2.5-.8-3.2z" fill="#d7d7f4" opacity="1" data-original="#d7d7f4"></path><path d="M392.5 299.1c-1.8 1.8-3.8 3.2-6.2 4.3-2.1 1-4.4 1.5-6.6 2.4-.3-1.1-.7-2.1-1.4-3-.8-1.1-2-1.7-3.2-2.3-.9-.4-3.4-.9-3.4-2.1-.1-1.7-2.5-2-2.9-.4-.8 2.8 1.4 4.3 3.5 5.5-.2.3-.3.6-.3 1-.3 2.4-.3 4.8-.3 7.2 0 1.4 1.5 2.7 2.9 2.2.1 0 .3-.1.4-.2.1.3.1.6.2 1 .6 2.8 4.3 1.8 4.5-.6.1-1.3.3-2.7.4-4 .4-.2.7-.3 1-.4.1 0 .2-.1.3-.1 1.9.4 4.3.6 5.9-.5.7-.5.8-1.5.2-2.1 2.8-1.5 5.4-3.4 7.2-6.2.8-1.4-1.1-2.8-2.2-1.7z" fill="#d7d7f4" opacity="1" data-original="#d7d7f4"></path></g><g fill="#bacdf7"><path d="M395 252c.8-1.3-.2-3.5-1.9-3.3-3.7.4-7.2 1.6-10.9 2-1.7.2-2.3 1.8-2.1 3-1.8 1.1-3.6 2.3-5.6 3.1-1.8.6-3.7 1.1-5.6.8-2-.3-3.2-1.6-4.8-2.7-.2-.1-.4-.2-.5-.3-.4-.9-1.8-1.4-2.4-.3-1.5 3.1-.5 6.7 2.3 8.7 2.9 2 7.4 1.3 10.6.7 4.3-.8 8.6-2.7 12.4-4.8 3.2-1.7 6.6-3.8 8.5-6.9zM319.4 253.8c-2.1-.4-4.6.3-6.7.6-1.3.2-2.6.4-3.9.5-.2-.3-.5-.5-.8-.5-3.1-.5-6.6-.3-9.1-2.4-.9-.7-2.3-1-3.2 0-6.2 7.2-8.7 17.3-10.7 26.4-1 4.3-2.8 9.3.3 13.2 3.2 4 8.9 5.4 12.9 8.5 1.5 1.2 3.3-.5 3.4-2 .6-5.2-2.5-12.6 1.1-17 3.2-4 9.8-2.8 14.3-3.5 4.2-.6 6.3-3.4 6.9-7.4.7-4.6 1.4-12.2-2.5-15.7-.5-.8-1.3-.9-2-.7zM442.7 251.3c-3.2-6.3-8-13.8-15.7-14.4-3.8-.3-7.6 1.9-10.8 3.7-4 2.3-7.7 4.7-12.4 5.3-1.2.1-1.8 1.5-1.3 2.3-.9 0-1.8.1-2.7.4-.9.2-.9 1.5 0 1.8 1.6.5 3.2.9 4.8 1.4.7.2 1.4.5 2.1.8-3.6 4.6-6.4 10.4-8.3 15.8-2.5 7.1-1.5 15.2-3.6 22.5-.3 1.2.4 2.5 1.6 2.8 2.7.8 6 2.3 8.7 1 .5-.2.8-.7.8-1.3 1.5.2 3 .3 4.5.6 3.9.8 7.9 2 11.6 3.6 4 1.7 9.3 4.5 11.6 8.7-.5-.1-1 0-1.4.4-3.6 3.3.6 8.5 4.6 8.3.9 0 1.8-.5 2.2-1.4.9.1 1.8-.2 2.3-1.2 2.5-4.5 2.7-9.9 3.8-14.9 1.1-5.4 2.2-10.7 2.9-16.1 1-10.5-.5-20.6-5.3-30.1z" fill="#bacdf7" opacity="1" data-original="#bacdf7"></path></g><g fill="#8f93e2"><path d="M448.1 273.5s0-.1.1-.1c.9-1.9.4-4.2.1-6.2-.4-2.8-1.1-5.6-1.8-8.4-1-4.1-2.6-11.5-7.4-12.8-1.8-2.9-4-5.4-6.9-6.9-2.5-1.3-4.9-1.2-7.1-.4-.5-.1-1.1 0-1.5.4l-.4.4c-.9.5-1.8 1.1-2.6 1.7-2.5 1.5-4.9 2.9-7.7 3.9-3 1-6.1 1.2-9.2 1-.5-.1-1.1-.1-1.6-.1-2.9.1-2.8 4.1 0 4.4.4 0 .7.1 1.1.1 1.3.2 2.5.8 3.7 1.4-1 1.8-2.6 3.3-3.1 5.5-.1.4 0 .7.2.9-.1.1-.2.1-.3.2-.8.5-.4 1.5.4 1.6 2.7.3 5.8-.2 8.5-.6 2.3-.3 4.4-.9 6.5-2 3.8-2 7.2-5.7 11.9-4.1 5.4 1.9 6.8 11.1 7.5 15.8 1 5.8 1.5 12.5 0 18.3-1.2 4.8-4.7 8.8-6.1 13.6-.5 1.5-.2 3 .8 4.3 1 1.4 1.8 2.9 2.3 4.4-1.5.6-2.3 3-.5 4.1 1.1.6 2 .9 3.2 1.1 1.2.1 2.3-1.1 2.3-2.3 0-.6-.1-1.2-.1-1.8.8 0 1.6-.6 1.9-1.5.7-2.1.7-4.2.5-6.3.7-.2 1.3-.7 1.6-1.6 2.6-7.5 4.4-15 4.1-23 0-1.6-.2-3.3-.4-5zM393.7 248.7c-2.3-.3-4.6 0-6.9.4-2.7.4-4.4 1.9-6.1 3.9-2 2.5-4 3.5-7.1 4.1-1 .2-2 .3-3 .2-2-.6-4.1-1.1-6.1-1.9-.7-.3-1.4-.3-1.9-.1-.1-.3-.3-.5-.4-.7-.6-1.1-2.2-.3-1.9.8.6 2.7 1.2 5.6 3.2 7.6 2.1 2.2 5.5 2.2 8.3 1.8 9.1-1.3 17-5.8 23.5-12.1 1.6-1.6.3-3.8-1.6-4zM311.5 270.9c-1.3 1.5-2 3.8-2.6 5.7-.8 2.5-1.5 5-2.4 7.5 0 .1 0 .1-.1.2 0-1.5-.2-3.1-.3-4.6-.1-1.2-.2-2.5-.4-3.7.1-.1.1-.3.1-.4.2-.8.3-1.7.3-2.5.9.3 2 0 2.6-.9 3-4.1 3.1-8.6-.2-12.5-.6-.7-1.4-1.4-2.2-2h.1c2.9 1.1 4-3.4 1.3-4.6-2.6-1.1-5.7-1.6-8.5-1.5-1.2 0-2.5.3-3.7.9-.2.1-.3.1-.4.2-.9.6-1.6 1.4-1.7 2.5-.5 0-.9 0-1.4.1-1 .2-1.4 1.7-.6 2.4s1.8 1.3 2.7 1.8c-.6-.1-1.3-.2-2-.1-1.2.1-1.8 1.4-1 2.4l.2.2c-.9-.2-1.8.9-1.2 1.8 3.6 5.1 6.2 10.1 7.5 16.4.6 3.1.9 6.2.8 9.3 0 2.8-.8 5.4-1.1 8.2-.2 2.2 2.9 2.8 4 1.2 4.1-1.8 6.6-7.8 8.1-11.6 1.1-2.7 2-5.4 2.8-8.2.6-2.2 1.6-4.9 1.3-7.2 0-1.1-1.2-1.9-2-1z" fill="#8f93e2" opacity="1" data-original="#8f93e2"></path></g><path fill="#e1eaf9" d="M434.7 313.3c-.7-1.4-2.5-1.3-3.5-.4-4.5 3.8-8.7 7.8-13.3 11.5-4.7 3.8-10.1 6.4-15.9 8.2-.4.1-.7.4-.9.8-1.8-.5-4.3.7-6 2.2-.7-.2-1.5.2-1.6 1.1v1.8c.1 3 .4 6 .6 9.1.1.9.6 1.6 1.4 1.9 4.1 1.6 8.6 1.2 12.9 1.9-2.1 4.7-8 5.8-11.8 8.9-1.9 1.6-2.9 3.7-3.6 6l-2.4 3.3c-1 1.4-2.3 3.1-2.6 4.9-.1.9.3 1.6.9 1.8-.2.7-.1 1.3.3 1.8.4 1.6 1 3 1.7 4.6.2.4.5.7.9.8.3.8 1 1.3 2.1 1.3 15.6 0 32.6-3.8 40.8-18.4 4.3-7.6 5.7-17.1 5.7-25.8.3-9.3-1.6-18.9-5.7-27.3z" opacity="1" data-original="#e1eaf9"></path><g fill="#7eed96"><path d="M437.4 354.9c1.1-1.3 1.8-2.7 1.9-4.9 0-.7-.8-1.4-1.5-1.2-2.7.9-4.4 2.5-5.5 5.1-.2.5.2.8.7.8-1.5.5-1.2 3.1.5 2.9.4 0 .7-.1 1.1-.2-.2.8-.8 1.1-2.2.7-1.2-.3-2.3.8-2 2 .4 1.7-1.8 1.9-2 3.7-.1 1.2 1.3 1.7 2.2 1.3 1.7-.8 2.8-2 3-3.6 3-.2 4.4-2.7 3.9-6.3 0-.1-.1-.2-.1-.3zM432.5 339.8c.6.6 1.3 1 2.1 1.2 1 .3 2-.7 1.7-1.7-.3-1.1-1-2-1.8-2.8-.1-1.5-1.3-3-2.3-4.1-.9-1.9-2.5-3.7-4.1-4.4-1-.5-2.2-.1-2.5 1-1.1 4.1-.3 10 4.7 11 .8.1 1.5.1 2.2-.2zM415.3 376.8c.4-2-.5-4.7-1.2-6.1-1.3-2.5-4.1-3.7-6.8-3.8-1 0-1.7 1-1.4 1.9.6 2.7 1.3 6.5 3.4 8.5.5.5 1.6.2 1.6-.6.4.5.9 1 1.4 1.4 0 .1.1.2.1.2.3.7 1.1.8 1.7.5h.6c.7-.1 1.1-1 .9-1.6-.1-.1-.2-.2-.3-.4zM411.7 341.3c.1-.9-.9-1.4-1.7-1.3-1 .1-1.3.4-2.1 1.1l-.1.1c-1.1-.1-2.3.4-3.3.9.1-.8-.4-1.7-1.3-1.6-2.7.2-5.2 1-7.3 2.8-.9.8-.4 2.4.7 2.7 1 .3 2.1.5 3.1.6.2.4.7.7 1.2.5.3-.1.7-.2 1-.3 1.1 0 2.2-.1 3.4-.3 2.5-.6 6.2-2.3 6.4-5.2zM428.3 321c.9-1 2-2.9.8-4.1-1.1-1.1-2.6.7-3.2 1.5-.5.7-1 1.3-1.6 1.9-1-.4-2.1-.5-2.2.9-.1.9 1 1.5 1.5 2.2.4.5 1.4.6 1.9.2 1.1-.7 2-1.7 2.8-2.6z" fill="#7eed96" opacity="1" data-original="#7eed96"></path></g><g fill="#ff809e"><path d="M426.7 349.6c-3.3 1.1-6.6 3.4-9.1 6.1-1.1 1-2.1 2.1-2.8 3.4-.3.6-.5 1.2-.5 1.8-.3 1.2-.1 2.4.7 3.4.3.3.6.5.9.7.9 1 2 1.8 3.1 2.2 3.6 1.4 8.1 1 11.2-1.3 3.2-2.3 4.2-6.5 4.5-10.3.6-5.2-3.3-7.7-8-6zM437.2 315.7c-2-2.6-5.4-2.8-8.1-1.2-.8.4-1.5 1.1-2 1.8-.4-.2-.9-.1-1.2.4-1.4 2.2.2 5.6 2.2 6.9 2.6 1.6 5.9 1.4 8.3-.5 2.2-1.8 2.5-5.2.8-7.4z" fill="#ff809e" opacity="1" data-original="#ff809e"></path></g><path fill="#6bdd99" d="M376.7 277.2c-1 0-2.1.1-3.2.3.4-.6.7-1.2 1-1.8.8-1.5-.9-3.6-2.5-2.5-1.3.9-2.8 1.8-4.1 2.9-.5-1.9-1.4-3.8-2.8-5.1-1.1-1-2.8-.6-3.2.8-.9 2.9-.6 6.6.4 9.4.3.9 1.5 1.2 2 .3.2.4.5.6 1 .6.5.6 1.3.8 2 .6.3.3.7.4 1.2.4 3.9-.2 8.9 2 10.1-3.4.3-1.2-.6-2.5-1.9-2.5z" opacity="1" data-original="#6bdd99"></path><path fill="#ff5a7a" d="M376 285.9c-1.5-2.3-4.2-3.5-6.7-4.2-2.1-.6-5.4-1.3-7.4 0-.6.4-.6 1.2 0 1.6.1.1.2.1.3.2-.2.5-.1 1 .3 1.3-.2.3-.3.7-.3 1.1v2.1c0 1.1.9 2 2 2h.8c.8.7 1.7 1.4 2.6 1.9 0 .3.2.6.5.8.6.4 1.2 1 1.7 1.6.3.4.5.7.7 1.1v.3c-.1.6.1 1.2.3 1.6-.1.7-.1 1.4.2 2.1.1.2.4.4.7.4 2.4-.3 3.9-3.4 4.7-5.4 1.1-3 1.3-5.9-.4-8.5zm-10.8.1h-.2c-.5 0-.8-.4-.8-.8s.4-.8.8-.8h.3c.5 0 .8.4.8.8s-.4.8-.9.8zm3.1 3.5c-1.1 0-1.1-1.7 0-1.7 1.1.1 1.1 1.7 0 1.7zm3.9-2h-.3c-.5 0-.8-.4-.8-.8 0-.5.4-.8.8-.8h.3c.5 0 .8.4.8.8s-.4.8-.8.8zm1.8 6.9c-1.1 0-1.1-1.7 0-1.7 1 .1 1 1.7 0 1.7z" opacity="1" data-original="#ff5a7a"></path><g fill="#ffdb80"><path d="M416.5 325.6c-3.6.1-7.4 1.4-10.7 2.7-1.8.7-3.4 1.7-4.4 3-.7 1-1.2 2.1-1.3 3.5-.2 1.5.2 2.9 1.4 4.4 1.7 2.1 4.9 2.8 7.5 2.6 7.8-.6 11.2-7.9 9.3-14.9-.2-.7-1-1.3-1.8-1.3zM407.7 374.8c-4 .8-7.6 4.4-7.8 8.5 0 1 .9 1.3 1.7 1 .4.7 1.1 1.2 2.1.8.2-.1.3-.1.5-.2h.1c.2-.1.4-.2.5-.2.6.2 1.4 0 1.7-.6.1-.1.1-.2.2-.4.1-.1.2-.1.3-.2 2-.8 4.2-1.3 6.4-1.4.3 0 .5-.1.7-.2.9.8 2.3-.2 2.4-1.2.4-4.6-5.1-6.6-8.8-5.9zM440.6 342.1c0-.1-.1-.1-.1-.2-.1-3.2-.4-6.5-2-9.4 0-.1-.1-.1-.1-.2.6-.4 1.2-.8 1.6-1.3.3-.4.1-1.2-.4-1.4-4-1.8-8.2 4.2-8.7 7.5-.3 2 .3 4 1.8 5.4 1.3 1.3 3.9 2.4 5.6 1.6 1.1 1.1 3.3-.7 2.3-2z" fill="#ffdb80" opacity="1" data-original="#ffdb80"></path></g><path fill="#bacdf7" d="M433.4 316.2c.1-2-2.6-3.1-4.1-1.7-6.9 6.5-15.3 12.1-23.8 16.3-6.2 3-12.9 5-13.1 13.1 0 1.1.6 1.8 1.4 2.1-.8.7-.4 2.2.6 2.1.3.3.6.5 1.1.7 4 1 8.8 2.3 13 1.5h.3c-1.7 4.9-7.8 9.8-12.4 10.2-1.1.1-2.4.9-2.2 2.2.7 6-6.5 9.1-6.8 15-.1 1.2 1.1 2.2 2.2 2.2h.1c.1 0 .2.1.4.2.6.2 1.1.3 1.7.4 1.3.2 2.7-.1 4-.3 3.5-.5 6.9-1.7 10.3-2.8 7.6-2.5 14.3-6 20-11.8 6.4-6.6 9.5-15 10.7-24 1.1-8.5 1-17.9-3.4-25.4z" opacity="1" data-original="#bacdf7"></path><path fill="#ff94bb" d="M361.9 280.3c-.1-1.5-1.4-2.7-3-2.3-8.8 2.4-18.1 2.6-27.2 2.5-5.1 0-10.1-.3-15.1-.7-5.5-.4-11-1.4-16.6-1.3-.8 0-1.2.6-1.1 1.2-.1.2-.1.4-.1.6.5 5.1 1.8 10.2 2.8 15.2 1.1 5.6 2.1 11.3 2.9 16.9 1.3 10 0 20.6 3.2 30.4.4 1.1 1.2 1.6 2 1.6 4.7 2.7 9.8 3.3 15.2 3.6 5.9.3 11.9-.1 17.8-.4 4.3-.3 10.8-.4 14-3.7 2.5-2.5 1.3-7.6-.3-10.2 1.2-7.2.4-14.8.7-21.9.2-4.8.8-9.5 1.8-14.2.5-2.1 1-4.3 1.6-6.4.4-1.7 1-3.6.9-5.3.3-1.9.7-3.7.5-5.6z" opacity="1" data-original="#ff94bb"></path><path fill="#ffdcea" d="M359.5 278.1c-3 .6-6.2.8-9.2 1.5-.3-.3-.9-.3-1.2.2-.1.1-.2.2-.2.3-.4.2-.6.5-.7.9-4.2 5.6-8 11.4-12.1 17l-5.4 6.3c-2.7 3.1-5.4 6.2-8 9.4-1.4 1.8-3.6 3.9-5 6.2-3.6 3.7-7.4 7.3-11.3 10.8-.7.7-.6 1.5-.1 2.1 0 .1-.1.3-.1.4 0 3.5.7 7.1 2.1 10.4.8 1.7 1.9 2.8 3.3 3.3 0 .6.6 1.2 1.2 1 7.9-2.9 14.4-9.1 20.3-14.9 3.1-3 6-6.2 8.9-9.5.9-1 1.9-2.1 2.8-3.1 3.4-2.9 6.2-6.5 8.7-10.2 4.7-7 7.3-15.8 7.2-24.2.4-1.9.7-3.8 1.2-5.6.1-1.4-1.1-2.5-2.4-2.3z" opacity="1" data-original="#ffdcea"></path><path fill="#ff5760" d="M342.5 307.2c-1.1-3.8-3.6-8.3-7.3-10.1 0-.9-.9-1.9-2-1.6-5.4 1.3-10.7 3.6-14.3 8s-4 10.1-.8 14.8c4.2 6.3 15.3 12 21.9 5.9 4.5-4.1 4-11.7 2.5-17z" opacity="1" data-original="#ff5760"></path><g fill="#ff5760"><path d="M357 338.6c.1-2.4-.1-4.8-1.2-6.9-.2-.4-.6-.7-1-.8.4-.9.2-2.1-.9-2.8-3.7-2.3-9.4-1.7-11.8-5.8-.5-.9-1.5-1.1-2.4-.8-.3-1.1-.5-2.2-.8-3.2-.2-1-1.9-.8-1.8.2.2 3.4.6 8 3.5 10.2 1.9 1.5 4.4 2.1 6.9 2.6 1 2.4 2.2 4.8 2.8 7.4.1.2.1.5.1.7-.1.4-.2.7-.4 1-.6 1.1-1.9 1.7-2.9 2.3-2.8 1.5-6.2 2.1-9.4 2.7-8.8 1.6-17.5.1-26.3-.7-.9-.1-.9 1.1-.2 1.4 9.6 3.8 19.1 4.8 29.2 3.2 2.9-.5 6-1.3 8.7-2.7.2.2.4.3.7.2 1.2-.1 2-.9 2.6-1.9.7.1 1.4-.2 1.8-.8.8.3 1.8.1 2.2-.6 1.1-.1 2-1.2 1.4-2.6-.3-.8-.6-1.5-.8-2.3zM358.4 277.9c-2.5 1.1-5.2 1.4-7.8 1.9 0-.1-.1-.2-.1-.4-.5-1-1.8-.4-1.9.5-.3 2.9-.3 6.5.5 9.4.5 1.7 3.2 1.4 3.1-.3 2.1.6 4.2.3 6.3.3 1.1 0 1.9-.9 1.9-1.9 0-2.7.6-5.3.7-7.9.1-1.5-1.5-2.1-2.7-1.6z" fill="#ff5760" opacity="1" data-original="#ff5760"></path></g><path fill="#fff6f1" d="M433.3 307.1c-.2-.4-.5-.7-.9-.9-4.6-2.5-6.9-7.5-11.4-10.2-4-2.4-9.5-4.1-14.2-3.3h-.7c-4.3 1-7.9 3.3-11 6.4-2.4 2.3-4.3 5.5-7 7.5-2.4 1.8-5.2 3.2-7.9 4.5-.9.4-3.5 1.8-5.1 1.8-.6-2.1-1.9-4.2-2.7-6-1.5-3.2-1.5-6.8-3-10-2.3-4.7-7.6-5.3-12.3-5.7-5.1-.4-10.4-.5-15.4.6-1.8.4-3.6 1.1-4.7 2.6-.4.5-.5 1.1-.5 1.7-.1 1 .4 2 1 3-2.6 1-4.8 3.5-4.1 6.3.6 2 2.1 3.1 4 3.7.4.1.8.3 1.3.4-1.2 1.5-2.1 3.1-1.1 5.2.9 1.9 2.6 2.9 4.5 3.7-.7 1-1.3 2-.9 3.2.7 2.2 3 3.5 5.1 4.4 2.7 1.1 5.5.9 7.9 2.8 1.9 1.5 2.6 3.7 3.4 5.8 0 .2-.1.3-.1.5.1 2.7 1.1 5.3 1.5 7.9-1 .5-1.9 1.3-2.9 1.7-1.8.8-3.8 1.3-5.7 1.8-4.9 1.4-9.8 2.9-14.8 3.7-5.5.9-10.9.3-16.2-1.1-2.3-.6-4.6-1.4-6.9-2.3-1.6-.6-3.5-1.9-5.3-1.8-.1-7.4-2.6-14.6-3.7-21.9-.8-5.4-2.1-10.7-2.5-16.1 1.3-.4 2-2.5.5-3.4-.2-.1-.4-.3-.6-.4-.1-.9-1.2-1.5-2-1.2-.2-.1-.3-.2-.5-.3-.7-.5-1.5-1-2.3-1.5-1.1-2.2-3.8-4.1-5.3-5.4-2.3-1.9-4.8-3.5-7.4-5.1s-5.5-2.9-8.1-4.5c1.2-.6 2.3-1.4 3.2-2.1 2.7-2.3 4.9-5.4 4.7-9.1-.2-3.8-3.2-7.2-5.9-9.7-2.4-2.2-5.1-4.1-7.9-5.7 2.2-.3 4.4-.7 6.6-1.1 1.2-.2 1.3-1.7.6-2.4-.8-4.6-4.7-8.6-8.5-10.9-4-2.4-8.7-2.4-12.8-.4-4.7 2.3-8 7.6-10.9 11.8-3.2 4.7-5.9 9.8-7.3 15.3-1.3 5.1-.8 10.2 1.3 15 2 4.5 5.8 8 9.3 11.3 4.2 3.9 7.9 8.1 11.9 12.2 2.1 2.1 4.3 4.3 6.1 6.7 1.7 2.2 3.2 4.6 5.1 6.6-1.2 2-1.3 4.8-1.5 6.9-.3 3.4 0 6.7.5 10.1.9 6.9 2.6 13.8 5 20.3 2.6 7 6.2 13.6 9.4 20.4.7 1.6 3.5 5.9 2.7 7.4-1.4 2.4-4.3 3.1-5.6 5.7-.6 1.3-.2 3.1 1.4 3.4 3.6.8 7.3-.5 10.8-1.4 2.3.8 5.1.5 7.4.5H333.5c7.1 0 14.3.1 21.4.1h11.2c3.5 0 7.1 0 10.5-1 .7-.2 1-.9.9-1.5 3.3-.5 6.6-1.8 8.7-4.1 4.4-4.6.9-10.6-.5-15.8 4.4-2 8.2-7.6 7.4-12.6 4-2.3 7.8-5 12-7 1.5-.7.9-2.9-.4-3.2-3.5-1-7.4-1.2-11.1-1-.1-4.4-1.6-9-2.4-13.3 2.4-.7 4.7-1.8 6.8-2.7 4.5-2 9-4.2 13.4-6.4 4.1-2 8-4.2 11.3-7.4 1.5-1.4 2.9-2.8 4.3-4.3 1.6-1.3 3-2.7 4.1-4.3.8-.8 1.6-1.6 2.5-2.4.6-.6.3-1.6-.3-2z" opacity="1" data-original="#fff6f1"></path><g fill="#fdb8a9"><path d="M435.2 307.5c-.1-.2-.2-.5-.3-.7-.2-.4-.4-.8-.9-1-.4-.2-.8-.3-1.3-.2l-.6.3c-.2-.5-.4-1-.8-1.5-2.1-3.1-6.2-4.5-9.6-5.9-3.5-1.4-7-2.4-10.6-3.3-2.1-1.3-4.3-2.2-6.6-2.8-1-.2-1.6 1.1-.7 1.7 5.5 3.7 13 7.9 11.8 15.8-1 6.6-8.3 11.9-13.6 14.9-2.2 1.2-4.5 2.2-6.8 3.1-.8.2-1.6.5-2.3.8-3.5 1.2-7.1 2.3-10.5 3.8-.8.4-1.7.8-2.5 1.2-2.7.7-5.5 1.1-8.3 1.2-4.3 0-7.5-1.2-10.7-4-1.5-1.3-2.8-2.5-4.3-3.5-2.3-4-7.3-4.1-11.8-4.5-.7-.1-1.1 1-.6 1.4 2.3 1.9 5.5 1.3 7.8 3.1 2.1 1.6 2.1 5 3.1 7.3 1 2.4 2.8 4.1 4.9 5.2-.9.1-1.6 1-1.4 2 .1.4.3.8.4 1.3-1.2.2-1.6 1-2.4 2-.2.3-.5.5-.7.8-2 .7-4.3 1-6.3 1.8-1.4.5-3.7.4-4.6 1-.2.1-.4.3-.5.5-3.1.2-6.2.2-9.2.3-1.7.1-4 .2-5.7 1-.4-.4-1-.4-1.5-.2-.2-.2-.5-.4-.9-.5-2.7-.7-5.5-1.2-8.3-1.5-1.9-.3-4.1-.9-5.7.4-.2-.8-.5-1.5-1-2.2-.2-.3-.4-.4-.7-.5-.1-.1-.1-.2-.2-.3-.7-1.2-2-1.3-3-.6-.4-.3-.9-.4-1.5-.1-.7-8.3-2.6-16.3-4-24.6-.3-1.6-.5-3.5-.9-5.5.8-2.9.6-7.4-1.3-10.3-.4-1-.9-1.8-1.7-2.5-.5-.4-1.1-.3-1.5 0-.3-.1-.6-.2-1-.2h-.2c-.8-.7-1.6-1.2-2.6-1.6s-1.5 1-.9 1.6l.1.1c-1.5-.8-3.1-1.1-5-1.4-1.3-.2-1.7 1.4-.5 1.9 7.5 3.2 10 10.4 11.8 17.7l.3 1.8c.8 4.5 1.9 8.9 2.7 13.3 1 5.6 1.4 11.2 1.5 16.8 0 1 .8 1.6 1.7 1.7 4.2.5 8.5.6 12.7.6.5.6 1 1.2 1.5 1.9 1.1 1.7 1.8 3.6 2.4 5.6 1.1 3.9 1.5 8 1.9 12 .4 3.8 1 7.5 1.1 11.3.1 1.4.1 3.4-.6 4.7-.1.2-.3.5-.4.7-2.3-.4-4.8 0-7.1.1-3.1.2-6.3.7-9.4 1.1-6.3.9-13.2 1.4-19.1 3.6-.9.3-.7 1.5.2 1.6 6 .8 12.5-.6 18.5-1.1 3.3-.3 6.5-.6 9.8-.8 1-.1 2.2-.1 3.3-.1.1.1.2.1.3.2 1.6.5 3.2.1 4.5-.6 2.1.3 4.2.2 6.3.4.8.1 1.8-.6 1.9-1.5.1-.7.2-1.2-.2-1.9-.9-1.9.8-3.5 2.1-4.6.7-.6.8-1.8.3-2.6-3.1-4.5-4.3-9.7-5.3-15-.5-2.9-.9-5.7-1.4-8.6-.1-.3-.1-.7-.1-1h.1c9.8-2.4 22.7-5.4 31.2 1.9 5.1 4.4 7.4 11.2 9.7 17.2 1 2.6 2.4 4.9 3.4 7.4.2.5.3.9.4 1.3-1 .2-2.1.4-3.1.5-3.9.6-7.8 1.2-11.7 1.9-7.5 1.2-15 1.9-22.5 2.9-.9.1-.5 1.3.2 1.4 7.7 1 15.2.3 22.8-.4 3.5-.3 7-.8 10.4-1.2.4-.1.8-.1 1.2-.2-.3 1 .7 2 1.8 1.8.9-.2 1.8-.6 2.5-1.3h.2c5.5-.7 12.2.7 14.2-6 1-3.2-.2-6.8-1.1-9.9-.6-1.8-1.3-3.5-2-5.3l-.3-.6c.6 0 1.3-.2 1.8-.9.6-.8 1.2-1.7 1.7-2.6.6-.5 1-1.2 1.3-2 .5-.6.9-1.2 1.4-1.9 1.5-1.9 3.8-4 4.4-6.5v-.4c.3-.2.5-.3.8-.5 1-.4 2-.8 2.9-1.2 2-.2 4.2-.8 4.9-2.8.2-.6-.1-1.4-.7-1.7-.5-.2-1-.3-1.5-.4-1-.4-2-.1-2.9.4-.5.1-1.1.2-1.6.3-1.9.1-3.9 0-5.8-.3-.2-2-.4-4-.4-6 0-2.5.4-5 0-7.4-.1-.5-.5-.8-.9-.9h.1c3.9-1.6 7.7-3.6 11.4-5.7 7.3-4.2 14.1-9.3 21.2-13.9 2.7-1.7 6.3-4.3 7.4-7.4s.1 0 .1.1c.1.1.2.1.3.2.3.2.6.2.9.2.5 0 1-.2 1.3-.6.4-.4.6-.9.6-1.4.7 0 .7-.3.6-.5z" fill="#fdb8a9" opacity="1" data-original="#fdb8a9"></path><path d="M291.6 300.5c1.9.2 2.8-2.5 1.5-3.6-2.5-2.3-5.9-3.6-9-5-1.6-.7-3.1-1.5-4.7-2.3-1.6-.9-2.6-2.2-4-3.3-.5-.4-1.3-.4-1.8 0 0 0 0-.1-.1-.1-.8-1.2-2.5-.4-2.2.9.6 3.2 2.6 6 4.1 8.8.8 1.5 1.6 3 2 4.7.4 1.5.2 3.2 1.2 4.5.4.6 1.2.8 1.8.2s.9-1.4 1.1-2.2c.2 0 .4-.1.5-.2 3-1.7 6.1-2.8 9.6-2.4z" fill="#fdb8a9" opacity="1" data-original="#fdb8a9"></path><path d="M272.1 285.4c3.9-1.7 9.6-4 9.9-9 .2-4.2-2.8-8.3-6-11-.4-2.3-1.3-4.8-3.3-5.8-.4-.2-.8-.1-1.1.2-.3-.5-.6-.9-1-1.4 2 .2 3.9.1 5.8-.6.8-.3 1.4-1.1 1.1-1.9-.8-2.7-2.4-6.4-4.9-8-.5-.3-1.1-.2-1.6.1-.1-.1-.1-.2-.2-.2-.6-.6-1.8 0-1.5.9.5 1.3.9 2.4.7 3.8-.3 1.5-1.9 2.2-3.2 2.6-.5.1-.7.5-.8.8h-.2c-.7 0-1.1 1.1-.4 1.4 3.2 1.5 4.6 6.5 5.5 9.6.6 1.9 1 4 1.3 6-.1 1.4-.3 2.8-.7 4.2-1.3 4.3-5 7.8-7.6 11.3-.7 1 .7 1.8 1.5 1.2 1.7-1.4 3.4-2.7 4.9-4.2.4.2 1.1.3 1.8 0zM365.3 255.3c4 2.4 11 3.4 14.2-.9 1.9-2.6-2.3-5-4.2-5.3-2.9-.5-6.5 1.2-8.8 2.9-.7.5-.7 1.2-.5 1.8h-.3c-.8 0-1 1.1-.4 1.5zm9.9-2.1c-.1.1-.3.1-.4.2-1.1.4-2.4.6-3.7.6l2.1-.9c.7-.2 1.3-.1 2 .1z" fill="#fdb8a9" opacity="1" data-original="#fdb8a9"></path></g><path fill="#fce290" d="M358.5 251.9c.2-7.6 1.8-15 2.4-22.6.1-1.1-.8-1.6-1.6-1.5 0 0-.1 0-.1-.1-1.7-.8-3.5.1-5.2.4-2.6.4-5.3.4-7.9.5-5.4.1-10.8.1-16.2.5-.6 0-1.2.4-1.6.9-.5-.2-1.1-.1-1.5.4-2.5 3.4-1.5 8.1-2.1 12-.1.5.1 1 .4 1.4-.2 2.6 0 5.2.4 7.9.3 1.8.5 3.6.8 5.4-.7 3.6-1.4 7.4-.7 11 .3 1.2 1.7 1.9 2.8 1.6 4.9-1.4 6.8 2.8 6.7 7 0 1.4 1.5 2.7 2.9 2.2 6.5-2.2 13.7 0 20.2-2.4.9-.3 1.8-1.1 1.7-2.2-1.1-7.3-1.6-14.9-1.4-22.4z" opacity="1" data-original="#fce290"></path><g fill="#fff"><path d="M327 229.6c-1.6 4.5-1.5 9.7-1.4 14.5 0 .8 1.1.8 1.2 0 .5-4.8.1-9.4 1.2-14.2.2-.7-.7-.9-1-.3zM325.2 251c-.2 4-.7 8.3.1 12.3.2.9 1.6.7 1.6-.2-.2-4-.3-8-.5-12.1-.1-.8-1.2-.7-1.2 0zM332.9 242.9c.6-4.6 1.3-9.3.7-13.7-.1-.4-.6-.3-.7 0-1.9 5.9-2 12.7-2.6 18.8-.3 3.4-.3 6.8-.3 10.1 0 3.7-.3 7.5-.1 11.2.1 1.1 1.8 1.4 2 .3.2-.9.2-1.8.3-2.6 1.7-3 1.8-7.3 1.8-10.4 0-4.7-.7-9.2-1.1-13.7zM338.6 229c-.1 2.3-.3 4.7-.6 7-.2 1.4-.4 2.8-.8 4.2-.3 1.2-.9 2.2-.8 3.4.1.5.6 1 1.1.6 2-1.4 2.1-5 2.4-7.2.4-2.8.3-5.5 0-8.2 0-.8-1.2-.6-1.3.2zM346.1 228.5c-.1-.7-1.1-.8-1.2 0-.4 8.2-2.4 16.3-2.8 24.5-.4 7.9 2.2 15.6 2.1 23.4 0 1.3 2 1.3 2 0 .2-7.9-2.2-15.5-2.1-23.4.2-8.3 2.8-16.2 2-24.5zM338.8 270c.1-.8-1.2-.9-1.4-.2-.6 2.9-1.3 6.3-.3 9.2.5 1.3 2.3.8 2-.6-.6-2.8-.7-5.5-.3-8.4zM353.5 227.4c0-.6-.9-.8-1.1-.1-2 7.7-4.3 15.5-4.6 23.5-.3 8.7 3 17.1 4.2 25.6.2 1.1 1.9.8 1.9-.3-.1-8.3-4-16.1-4.1-24.4-.2-8.3 3.3-16 3.7-24.3z" fill="#ffffff" opacity="1" data-original="#ffffff"></path><path d="M358.9 275.4c-.4-1.4-1.3-2.6-1.9-4-.6-1.5-.9-3.1-1.3-4.7-.7-3.7-.8-7.4-.6-11.1.3-9.2 1.7-18.2 2.7-27.4.1-.6-.9-.7-1.1-.1-2.9 8.9-3.5 18.9-3.8 28.2-.1 3.7.1 7.4.7 11.1.5 2.8 1.4 7.5 3.9 9.1.8.3 1.6-.4 1.4-1.1z" fill="#ffffff" opacity="1" data-original="#ffffff"></path></g><path fill="#e59d76" d="M334.3 274.8c-.7-1.1-1.6-2.1-2.7-2.9-.3-.2-.6-.3-.9-.2-1.1-.8-2.5-1.1-4.2-.8-.5.1-1 .2-1.5.4-2.6-3.8-8-7.1-9.8-3.4-1.9.8-3.4 2.4-4.2 4.4-2.8-.4-5.8-.1-8.8.1-2.6.2-2.6 4.3 0 4.1 4.2-.3 8.2 1 12.3 1.6.1.1.2.1.3.2.9.8 2 .6 2.7 0 1.1 0 2.2-.1 3.3-.3 3.1 1.6 7.6.6 10.8.6.3 0 .6-.1.8-.2.2.3.4.6.8.8.8.5 2.1 0 2.3-.9.3-1.3-.5-2.5-1.2-3.5z" opacity="1" data-original="#e59d76"></path><g fill="#cccaca"><path d="M337.3 248.9c.9.4 2.4 1 3.3.6 1.3-.5 1.2-2 0-2.5-.8-.3-1.7.1-2.5 0-.5-.1-1 0-1.2.5-.3.4-.2 1.1.4 1.4zM339.5 258.8c.4-.1.7-.2 1-.4.7-.3 1-1.2.8-1.9-.3-.9-1.2-1.4-2.1-1.2-.2 0-.4.1-.6.2-.7-.8-1.9-.5-2.3.5s.2 2.1.9 2.8c.6.8 1.7.6 2.3 0zM342.3 263.3c-1-.5-2.2-.2-3.2.2-.1 0-.2.1-.4.1-.5-.5-1.4-.5-1.9.1-.7.7-.7 1.8-.7 2.8 0 .7.5 1.4 1.2 1.6.8.2 1.5-.2 1.9-.8.2-.2.7-.4 1.1-.6.8-.2 1.7-.2 2.2-.9.8-.7.8-2-.2-2.5zM327.8 264.7l-3.6-.9h-.3c-1.1-.7-2.3-1.2-3.6-1.4-.1 0-.3 0-.4-.1l.3-.3c.7-.7 1.8-1.1 2.8-1.3.7-.2 1.4-1 1.3-1.7-.1-1.2-.3-2.2-1-3.2-.9-1.4-2.8-.8-3.3.3-.6-.2-1-.6-1-1.4 0-1.7 1.5-3.1 1.4-4.7h1.6c2 .1 4.1-.1 6.1-.1 2.5 0 2.5-3.8 0-3.8-1.3 0-2.5.1-3.8.2-1.8-.8-4.4-.5-6.2-.4-2.2.1-4.5.6-6.3 2-3 2.3-4.2 6.3-4.2 10.1-1.6.2-3.2.4-4.8.8-3.2.3-6.5.4-9.8.4-5.1 0-10.8-.6-15.8.7-.9-.4-1.9-.7-3.1-.8-.9-.1-1 1.1-.4 1.5 2.4 1.8 4.5 3.6 5.9 6.3.4.7 1.1.9 1.9.8 4.9-.7 9.8-1.8 14.8-2.3 4.4-.4 10-.9 13.5 2.5 1.1 1.1 2.8.3 3.1-1 1.1-.1 2.2-.7 3.3-1 1.5-.4 3.8.2 5.1.8 2.4 1.1 4.2 3 7 3.1.9 0 1.8-.8 1.7-1.7-.1-.8 0-1.7-.2-2.5-.2-1.1-1.3-1.4-2-.9z" fill="#cccaca" opacity="1" data-original="#cccaca"></path></g><g fill="#eaeaea"><path d="M328.4 247.1c.7-.3.3-1.2-.2-1.4-2.6-1.1-6.4-.2-9.1 0-2.4.1-5 .7-6.9 2.2-2.9 2.2-3.7 5.9-4.4 9.4-2.4.5-4.5 1.2-7 1.4-2.7.2-5.4.1-8.1 0-6.4-.1-12.8.7-19.1.6-.8 0-1 1.3-.2 1.5 6.4 1.5 12.8.9 19.3 1.2 4.8.2 11.6.8 16-1.7.3-.1.5-.2.7-.5 2-2.8 2.3-6.7 4.8-9.1 1.5-1.4 4.2-1.5 6.1-2 2.7-.7 5.7-.6 8.1-1.6zM339.1 248.1c.3-.2.3-.6 0-.8-.5-.3-1-.2-1.6-.1-.6 0-1.1.1-1.6.3-.7.2-.4 1.2.3 1 .5-.1 1-.2 1.5-.2s.9.1 1.4-.2zM322.9 255.7c-1.2-.4-2.6-.2-3.8-.1-1 .1-1 1.5 0 1.6 1.2.1 2.4.4 3.5.4 1.1-.1 1.3-1.6.3-1.9zM337 254.9c-.9 0-.9 1.3 0 1.4.7 0 1.4.1 2 .1.7 0 1.3.1 1.9-.2.4-.2.4-.9 0-1.2-.6-.3-1.2-.2-1.9-.2-.6.1-1.3.1-2 .1zM330.3 264.5c-1.5-.4-3.1 0-4.6.1s-3 .2-4.4.4c-.8.1-.6 1.4.2 1.4 1.6 0 3.3.1 4.9.1 1.5 0 2.9.1 4.2-.7.3-.4.3-1.1-.3-1.3zM342.5 263.7c-.9-.4-1.7-.3-2.7-.1-1 .1-2 .3-3 .6-.8.2-.7 1.6.2 1.5s1.9-.2 2.8-.2c.9-.1 1.8 0 2.7-.4.5-.3.6-1.2 0-1.4z" fill="#eaeaea" opacity="1" data-original="#eaeaea"></path></g><g fill="#eac324"><path d="M284.5 244.3c1-.2 1-1.7 0-2-7.1-1.5-13.7-5.5-18.3-11.1-4.7-5.7-7.3-14.7-3.8-21.5 1.7-3.3 4.3-6.1 5.9-9.5 1.7-3.4 1.6-7.1 1.3-10.8-.4-4.4-.3-8.6.2-13 .5-4.8 1.4-9.5.7-14.4-.2-1.1-2-1.1-2.2 0-1.7 9.6-3.2 19.3-2.6 29 0 .7.1 1.4.1 2.1-.1 0-.2.1-.2.2-2.8 2.5-4.9 5.5-6.3 8.9-.8 2-2.8 6.1-1.9 8.5-.4 1.1-.6 2.3-.8 3.5-.8 7.9 2.3 15.4 7.4 21.3 2.4 2.8 5.9 5.9 9.5 7.1 3.4 1.2 7.3 2.5 11 1.7z" fill="#eac324" opacity="1" data-original="#eac324"></path><path d="M267.9 140.2c-.7 2.8-1.4 5.6-1.8 8.5-.6 3.9-1.6 9.5.3 13.1.4.8 1.8.7 2-.3 0-.2.1-.4.1-.6.5-.2 1-.6 1.2-1.2 1.5-3.8 1.3-8.8 1.6-12.8.4-4.2.6-8.4 1.2-12.6 1.3-8.8 4.9-16.9 10.8-23.7.7-.8-.3-1.8-1.1-1.1-7.1 5.9-11 13.5-12.9 22.5-.7 2.6-1.1 5.4-1.4 8.2zM297.3 157.7c.2-3.7.4-7.4.9-11.1.6-3.8 1.4-7.5 2-11.2.1-.9-1-1.2-1.3-.4-2.9 6.9-4.6 15.2-4.2 22.7.1 1.7 2.5 1.7 2.6 0zM312.8 147.9c.3 2.7-.2 5.9.7 8.5.3 1 1.6.9 2 0 .9-2.3.4-5.2.2-7.6-.2-2.6-.5-5.1-.9-7.6-.8-5.7-1.7-11.6-1.7-17.3 0-.7-1.1-.9-1.3-.2-.9 5.4-.6 10.6 0 16.1.4 2.7.7 5.4 1 8.1zM365.6 157.3c-2.2-.7-4.6-.6-6.8-1.1-2.4-.5-4.7-1.2-6.9-2.3-4.2-1.9-7.9-4.7-10.9-8.2-3-3.4-5.2-7.6-6.8-11.9-1.7-4.7-1.9-9.7-2.6-14.6 0-.3-.5-.3-.6 0-2.2 9.7 1.6 21.2 7.6 28.9 3 3.8 7 6.9 11.4 9s10.7 4.2 15.5 3.1c1.6-.4 1.5-2.5.1-2.9zM409.9 177.8c-1.9-2.3-3.8-4.5-5.8-6.8-3.7-4.2-7.2-8.6-10-13.5-3.2-5.8-4.6-12.6-5.4-19.1-.7-6.5-1.1-13.1-1.5-19.7 0-.7-1.1-.7-1.1 0-.8 13-1.2 26.9 4.3 39.1 2.3 5.2 5.9 9.7 9.6 14 1.9 2.2 3.9 4.4 5.8 6.6 2 2.3 3.9 5.3 6.5 6.9.8.5 1.7-.3 1.5-1.1-.5-2.5-2.3-4.5-3.9-6.4z" fill="#eac324" opacity="1" data-original="#eac324"></path><path d="M424.6 201.1c-2-5.9-4.1-11.8-6.2-17.8-2.5-7.2-5.1-14.1-10.2-19.9-.5-.5-1.3.2-1 .8 6.5 11.2 9.1 24.4 13.4 36.5 1.9 5.6 3.8 11.2 4.8 17 .5 2.8.7 5.7.5 8.5s-1.4 5.3-2 8c-.3 1.4 1.3 2.4 2.4 1.4 3.9-3.6 3.7-10.7 3.2-15.5-.7-6.5-2.8-12.8-4.9-19zM463.7 175.1c-2.5-5.2-10-4.1-14.4-2.5-5.3 1.9-10.3 5.6-12.7 10.7-.6 1.3 1 2.2 1.9 1.1 2.7-3.6 7-6.4 11.1-8.1 2.2-.9 4.5-1.4 6.9-1.3 2.1.1 3.9 1 5.9 1.8 1 .4 1.7-.9 1.3-1.7zM326 244.8c.9-2 .9-4.2 1.2-6.4.3-2.6.8-5.3.9-7.9 0-1-1.3-1-1.6-.2-1 2.5-1.4 5.2-1.8 7.8-.3 2.2-.8 4.4-.4 6.5.2.8 1.4 1 1.7.2zM331.5 246.8c1.4-2.3 1.5-5.4 1.8-8 .4-3.1.6-6.1.3-9.3-.1-1-1.4-1-1.5 0-.4 3.2-.7 6.4-1.2 9.6-.4 2.5-1.2 5-.8 7.5.2.7 1.1.7 1.4.2zM310.2 257.2c.3-3.6 1.9-6.7 5.4-8.1 1.5-.6 3.1-.8 4.7-.9 1.7-.1 3.5.3 5.2-.2.7-.2 1.1-1.2.4-1.7-3.2-2.6-9.1-1.2-12.5.5-4.1 2.1-5.6 6.4-5 10.8.2.9 1.8.5 1.8-.4zM305.9 259.6c-2.3-.7-4.8-.3-7.2-.3-2.6 0-5.3.1-7.9.1-5.6.1-11.3-.1-16.9.5-1.1.1-1.1 1.5 0 1.6 5.2.6 10.6.5 15.9.4 2.6 0 5.3-.1 7.9-.2s5.8.1 8.2-.9c.7-.1.8-1 0-1.2zM250.9 294.1c-4.2-5.6-8-11.7-8.7-18.8-1.4-13.2 8.9-22.5 17.1-31.3.7-.7-.2-1.9-1.1-1.4-3.6 2-7 4.6-10 7.7-6.4-10.9-8.7-22.6-8.3-35.1.4-13.2 2.4-26 5.8-38.8s7.3-25.6 12.6-37.7 11.5-23.7 15-36.6c.3-1.1-1.2-1.4-1.6-.4-4.8 12.7-11.8 24.4-17.4 36.8-5.6 12.3-9.7 25.5-13.2 38.5-3.5 13.1-5.4 26.4-5.8 39.9-.4 12.1 1.9 25.8 9.1 35.9.3.4.6.7 1 .8-4.8 6.1-7.8 13.4-7.6 21.1.2 7.5 3.8 14.4 8.2 20.3 2.5 3.2 5.4 6.1 8.4 8.9 2.7 2.5 4.9 5.7 8 7.7.5.3 1.1-.3.8-.8-3.8-5.8-8.2-11.2-12.3-16.7zM292.9 299.6c-8 1.1-14.8 8.2-18.8 14.8-4.5 7.6-5.6 16.5-4.7 25.1 1 9.7 3.9 19.4 8.2 28.1 3.1 6.4 6 13.6 10.5 19.2-2.2 1.4-4.5 2.6-6.3 4.6-2.1 2.3-1.9 6.3 1.5 7.4 1.6.5 3.5-.5 3-2.4-.2-.7-.8-1.2-1.3-1.7 0-.1.1-.2.2-.3.7-1.1 2.2-2 3.2-2.9 1-.8 1.8-1.6 2.4-2.7 1.7 0 3.2-2.3 1.8-4.1-4.4-5.4-7.3-12.2-10.4-18.4-2.6-5.2-4.6-10.6-6.1-16.2-.2-1.2-.4-2.4-.4-3.5-.3-4.1-.7-8.2-.6-12.3.2-7 1.8-13.7 4.3-20.2 1.3-2 2.9-3.8 4.6-5.5 2.9-2.8 6.4-4.5 9.6-6.8.8-.6.7-2.4-.7-2.2zM339.7 279.8c.5-.5.1-1.4-.6-1.4-2.9-.1-5.8 1.1-8.6 1.5-3.5.5-7.1.6-10.7.6-5.9 0-11.6-1.4-17.4-1.9v-.2c0-.2-.1-.4-.2-.5.3 0 .6-.2.8-.5.8-.9 1.6-1.9 2.6-2.6s2.2-1.3 3.3-1.9c1-.5.5-2-.5-2-3.1-.1-6.3 1.8-7.8 4.5-.4.7-.1 1.5.4 2-.5.1-.9.4-1 .9v.1h-.3c-1.3 0-1.8 1.9-.7 2.4.2.1.4.2.5.3-.5 4.5.3 9.2.9 13.6.9 5.7 2 11.3 2.9 16.9.9 5.7 1.1 11.5 1.5 17.2.2 2.7.5 5.3.9 8 .3 2.4.6 5.4 1.9 7.5 1.1 1.7 3.5 1 3.7-1 .1-2.2-.7-4.6-1.1-6.8-.5-2.8-.7-5.7-.9-8.6-.4-5.5-.8-11-1.6-16.5-.8-5.3-2-10.6-3.1-15.8-.8-4.4-1.2-8.8-1.7-13.2 5.4 1.7 11.4 2.1 16.9 2.2 3.7.1 7.2-.4 10.8-1.1 3-.5 6.8-1.4 9.1-3.7z" fill="#eac324" opacity="1" data-original="#eac324"></path><path d="M319.1 266.4c-3-.2-6.1.8-7.7 3.5-.6 1.2.8 2.9 2 2 1.8-1.4 3.6-3.2 5.9-3.6 1.2-.1.8-1.8-.2-1.9zM318.9 277.4c-.3 1.4 1.3 2.5 2.5 1.4 1-.9 1.6-2.2 2.7-3 1.3-.9 2.6-1.2 4.1-1.8 1-.4 1.1-1.7 0-2.1-3.5-.9-8.6 1.9-9.3 5.5zM338.3 302.6c.6-.5.8-1 1-1.6.1-.4-.1-.8-.5-.9-1.9-.6-3.6 1.1-4.3 2.8-.8 1.9-.2 3.6 1.4 4.8.8.6 2.2-.2 1.5-1.2-.6-.8-.7-1.8-.2-2.7.2-.5.7-.9 1.1-1.2zM339.8 309.6c-1.6-.2-2.7 1.6-3 2.9-.4 1.5.3 3 1.5 4 .8.7 2.5.1 2-1.2-.3-.7-.7-1.5-.5-2.3.1-.4.5-.6.7-.9.2-.5.5-.8.5-1.4s-.6-1-1.2-1.1zM345.5 319.4c-.7.1-1.2.2-1.8.6-.5.3-.9.8-1.3 1.3-.8 1-1 2.2-.7 3.4.2 1 1.7.9 2 0 .1-.7.3-1.4.7-1.9.5-.6 1.3-1 1.9-1.6.4-.7.2-2-.8-1.8zM363.4 290.9c-3.3-1.1-7.6-.3-11.1-.3-2 0-4.8-.1-7.2.4 0-.1-.1-.1-.1-.2-1.4-1.7-4.3-.2-5.7.8-1.7 1.2-2.4 3-2.3 5.1 0 1.4 1.8 1.5 2.3.3.4-1.1 1.2-2.1 2.2-2.8.2-.1.3-.2.5-.3 3.3.5 7-.3 10.4-.3s8.2.5 11.2-1.5c.3-.3.3-1-.2-1.2zM333.2 362.5c-1.4-4.4-1.9-8.8-2.9-13.3-.2-1-1.5-.8-1.8 0-2.4 7.2 1.3 16.2 3.5 23.1 1.1 3.4 2.4 6.7 3.2 10.1.8 3.5-.6 6.3-1.6 9.6-.6 1.8 2 3.5 3.3 1.9 4.6-5.6 3-12.6.7-18.8-1.6-4.1-3.1-8.4-4.4-12.6zM393.6 337.7c.9 1.8 1.4 3.6 1.7 5.6.2 1.8-.1 3.6.3 5.4.2.8 1.4 1 1.8.2 1.8-3.9.1-8.8-2-12.3-.7-1.1-2.4-.1-1.8 1.1z" fill="#eac324" opacity="1" data-original="#eac324"></path></g><path fill="#766c6d" d="M258.4 416.5c-.7-1.2-1.8-2.1-3-2.4-3.1-2.5-7.4-3.3-11.6-3.3-3.9 0-7.7.7-11.6 1-3.8.3-7.7.4-11.6.5-4 .2-8 .3-12 .3-3.4 0-6.9-.4-10.3-.2 1.6-4.6 1.9-9.7 2.2-14.5.5-7.2.8-14.3.3-21.6-.4-6.3-1.1-12.6-1.2-19-.1-5.6-.2-11.1-1.2-16.6-.9-5.1-2.8-10.1-6.2-14-3.7-4.2-9.5-6.4-14.8-7.6-12.5-3-25.8-1.6-38.6-2.3-15.3-.9-30.6-2-45.9-2.4-14.5-.3-29 .6-43.4 2.1-.1-.5-.4-.9-.8-1.1-2.1-.9-4.5-.6-6.7-.5-2.7.1-5.4.4-8.1.8-5 .8-10 2.3-14.3 5.2s-7.3 7.4-8.8 12.3c-.8 2.7-1.1 5.5-1.4 8.3-.3 3.2.1 6.3-.1 9.4 0 .7.8 1.1 1.3.9-.2 2-.3 4.1-.4 6.1-.1 1.3-.1 2.6-.1 3.9-.3 3.2-.7 6.4-1.1 9.6-.7 5.4-.7 10.8-.8 16.2-.2 10.8.5 21.7 1 32.5.2 5 .6 10 1.3 14.9.6 4.2 1.2 8.5 3 12.4 1.6 3.6 4.5 5.2 7.8 5.8-.4.4-.8.7-1.1 1-2.1 2-3.8 4.9-3.1 7.9.6 2.5 2.7 3.8 5.2 3.8 1.4 0 3.1-.3 4.4-1.1h1.6c3.7.1 7.5.1 11.2.2 7.1.1 14.3 0 21.4 0h107c5 0 10.1.2 15.1-.1 2.4.5 4.9.1 7.3-.3 3.5-.6 6.9-1.6 10.2-2.9 6.6-2.6 12.7-6.2 18.9-9.7 6.6-3.8 13.3-7.5 19.8-11.4 5.1-3.1 11.1-6.5 15.3-11 1.9-.3 3.4-2.3 4.2-4 .3-.7.5-1.4.6-2.2 0-.1.1-.1.1-.2.8-1.9.1-4.8-1-6.7z" opacity="1" data-original="#766c6d"></path><path fill="#635a5b" d="M260 416.4c-2.9 0-5.8.8-8.5 1.9-3.7 1.5-7.1 3.7-10.5 5.7-3.6 2-7.4 3.8-11 5.7-6.7 3.6-12.7 8.5-19.1 12.6-6.3 4-13.1 7.9-20.4 9.8-1.4.4-2.6.2-3.6-.3-2.6-.3-5-2.4-5-5.1-.4-1.5-.2-3.1 1-4.6.3-.5.6-1 1.1-1.4l.6-1.2s.4-1.2.4-1.1c.2-.6.3-1.2.5-1.8.5-2.4.7-4.5.8-7.2.2-5.4-.2-10.7-.1-16.1.1-16.3 1.5-32.4.5-48.6-.7-11.5-1.5-24.9-9.1-34.2-8.4-10.4-20.9-14.3-34-14.4H143c-8.1.6-16.2.2-24.3-.1-16.7-.7-33.4-1.1-50.1-.8-8.3.1-16.6.4-24.8.7-6.1.3-11.7 1.3-17.4 3.3-3.8 1.3-10.7 3.7-11.8 8.3-.1.6.2 1.1.6 1.4-.4 1-.7 2-1.1 3-1 3.1-1.8 6.2-2.3 9.4-1.1 6.1-1.4 12.4-1.7 18.6-.5 14.1-1.1 28.3-.8 42.5.1 5.5.6 11.1 1.2 16.6-.1.2-.1.5 0 .7 0 .1.1.3.1.4.2 2 .5 4 .7 6 0 2.3-.3 4.6-.1 6.8 0 .2 0 .5.1.7-.2 2.1-.2 4.2-.1 6.3.1 2.5.4 5.8 1.8 8.3-.5.5-.5 1.6.2 2 2.7 1.4 5.8 2 8.9 2.3-3.6 1.5-8.4 5.2-5.9 9.7 2.9 5.2 11.5 4.3 16.4 4.4 16.3.6 32.5-1.6 48.7-2.8 16.6-1.2 33.1 1 49.7 1.6 16.7.5 33.4.2 50.1-.3 2-.1 4-.1 6.1-.2 1.3 0 2.6-1.1 2.5-2.5 0-.3-.1-.5-.1-.8 3 2.3 7.1 2.3 10.7.9 6.3-2.4 12-6.5 17.8-9.9 7.1-4.1 14.2-8.3 21.3-12.5 7.4-4.4 15.1-8.8 20.4-15.8 1.6-1.9 2.8-5.5.2-7.9 0 .1 0 .1 0 0z" opacity="1" data-original="#635a5b"></path><path fill="url(#d)" d="M42.4 315.1c10.9-.3 21.9.1 32.8.4 15.5.5 31 1.1 46.6 1.5 15.1.4 30.2.7 45.3 2.1 11.3 1 26.1 1.8 27.9 15.9 2.2 16.2 6.5 32 5.8 48.5-.4 8.1-1.4 16.2-1.6 24.3-.1 4.2.1 8.4 0 12.7-.1 3.2-.4 6.4-.5 9.6-.2 4.8-.2 9.7-1.8 14.3l188.9-102.8-119.6-239.4L18.1 320.3l1.4 1c5.9-5.2 15.4-5.9 22.9-6.2z" opacity="1" data-original="url(#d)"></path><g fill="#eac324"><path d="M194.8 355.1c.5 6.6 1 13.1 1.2 19.7.4 13.2-.4 26.3-.1 39.5.1 5.5.4 11.1 0 16.6-.4 5.9-2.2 11.3-5 16.5-.7 1.3 1 2.7 2.1 1.6 8.6-8.6 7.1-22.7 6.8-33.7-.4-14.4.3-28.8-.4-43.3-.3-6.9-.9-13.8-1.5-20.7-.6-6-.8-12.2-2.4-18.1-2.3-8.1-9.2-15.3-18.3-13.6-.5.1-.5.9 0 1 .6.2 1.2.3 1.7.5 0 .1 0 .1.1.1s.1 0 .1-.1c3.5 1 6.3 2 9 4.9 2.8 3 4 7.3 4.7 11.2 1.3 6 1.5 12.1 2 17.9zM258.9 414.5c-4.3-2.8-10.9-.2-15.1 1.6-6 2.5-11.4 6.3-16.7 10-12.8 8.9-25.2 18.4-38.5 26.6-.7.4-.2 1.6.6 1.3 7.8-2.9 14.5-7.7 21.3-12.3 5.5-3.7 11-7.4 16.5-11.2 5.1-3.6 10.3-7 15.9-9.8 2.6-1.3 5.2-2.4 8-3 2.5-.6 4.7-.3 7.2.1 1.8.2 2.1-2.5.8-3.3z" fill="#eac324" opacity="1" data-original="#eac324"></path></g><path fill="#93908a" d="M84.4 374.8c-20.9.3-10.3 31.5 8.2 20.9 16.4-9.2.3-28.4-14-18.8" opacity="1" data-original="#93908a"></path><g fill="#851919"><path d="M445 206.9c.5-1.8.5-3.7.9-5.6.5-2.1 1.3-4.2 2.4-6.1v-.1c.4.5.9.9 1.1 1.5.4 1 .4 2.2.3 3.3-.2 1.5 2.1 2.2 2.3.6.3-2.3 0-6.3-2.4-7.5.7-.8 1.4-1.6 2.2-2.3 1.7-1.5 3.8-2.3 5.7-3.6.6-.4.5-1.6-.4-1.5-8.7.6-15.6 13.3-14.3 21.2.4 1.2 2 1.1 2.2.1zM291.3 181.6c-9.6-.1-13.7 8.6-13.8 17.1 0 9.5 5.1 16.6 12.2 16.9s13.1-7.3 13.4-15.8-1.9-18.1-11.8-18.2zM276.6 168.4c3.3-1 6.2-2.2 9.8-2.3 3.7-.1 7.3 1 9.9 3.8 1.7 1.9 4.6-.9 2.8-2.8-3.1-3.4-7.6-4.6-12.1-4.7-3.9 0-9.1 1.1-11.6 4.5-.5.8.4 1.7 1.2 1.5z" fill="#851919" opacity="1" data-original="#851919"></path><path d="M491.5 190c-1.2-3.6-3-7-4.6-10.5-1.5-3.4-2.7-6.9-3.7-10.4-.8-8.3-1.8-16.7-3.2-24.9v-3.1c0-.4-.3-.5-.6-.4-1.1-6.2-2.4-12.4-3.9-18.5-2.1-8.2-5.2-15.7-10.1-22.6-2.1-5.2-6-10.4-9.6-14.4-4.9-5.5-10.7-10.2-16.9-14.1-11-7-25.5-11.7-38.3-7.3.1-2-1.4-4-2.5-5.4-3.1-3.9-7.6-6.7-12-8.7-17.4-7.9-38.4-5.3-56 .4-7.4 2.4-14.6 5.1-21.6 8.7-.2.1 0 .4.1.3.2-.1.3-.1.5-.2-5.7 3.4-10.7 7.7-15.4 12.6-14.6 14.9-26 33-35.5 51.5-7.9 15.5-14.4 31.9-18.9 48.7-5.1 14-9.3 28.4-10.9 43.3-1.5 14.2-.2 32.9 12.6 41.8-2.1 3.5-3.8 7.3-5 11.2-1.5 5-2 10.5-.5 15.5 1.4 4.9 5.2 9 8.5 12.9 4.2 5 8.6 9.8 12.9 14.6 2.1 2.4 4.2 4.8 6.2 7.2s3.7 5.1 6 7.2c-1.9 10.3-.4 21.5 2.2 31.4 1.4 5.3 3.7 10.2 5.8 15.2 2.1 5.1 4.2 10.5 7.6 14.9-3.1 1.6-6.6 4.5-5.9 7.8.9 4.8 8.8 4.3 12.2 4.1 14.5-.8 29.1-.4 43.6-2 .3 0 .5-.1.7-.3.8.1 1.7.1 2.3.2 4.5.3 8.9.2 13.4 0 7.2-.3 14.4-.4 21.5-.6 3.9-.2 8.7-.4 12.9-1.7 1.3-.1 2.5-.7 3.5-1.5.7-.4 1.4-.9 2-1.4.5-.4.5-1.1.2-1.7.1-.1.1-.3.2-.4.3-.9.4-1.8.5-2.7.8.6 1.7 1 2.9 1.2 2 .4 4.2.3 6.3 0 4.1-.4 8.3-1.2 12.3-2.5 7.8-2.5 14.5-7.5 19.7-13.9 5.4-6.6 9.5-15.3 10.4-23.8.6-5.2.1-10.4-.7-15.5-.4-2.7-.9-5.3-1.4-8-.4-2.2-.6-4.5-1.1-6.6 2.6-3.5 3.8-8.3 5.3-12.3 1.8-4.8 3.1-9.5 4-14.5.8-4.4 1.2-8.9 1.2-13.3 6.4-2.4 11.7-7 15-12.9 9.3-4.4 16.8-11.7 19.9-21.7 1.3-4 1.8-8.2 1.9-12.5 3-6 5.3-12.3 6.3-19 1-7.4.1-14.6-2.3-21.4zM438.1 72.2c6 3.7 11.3 8.3 16.1 13.4 2.4 2.5 4.6 5 6.6 7.8.2.3.5.7.7 1-2.5-3-5.2-5.8-8.1-8.4-14.5-13.1-33.3-19.6-52.5-21.7l-.2-.2c13.1-3.3 26.2 1.3 37.4 8.1zm-60.6-24c5.9 1.5 11.8 4.1 16.5 8.1 1.8 1.5 4 3.6 4.8 6-5.7-4.9-13.2-7.7-20.3-9.7-10.4-2.8-21.3-3.8-32-3.4-5 .2-10.1.7-15.1 1.6 15-4.4 30.7-6.6 46.1-2.6zm-146.4 190c-2.2-8-2-16.5-1.1-24.7 1.2-11.1 3.9-22 7.2-32.7-.5 2.5-1 4.9-1.4 7.4-3.7 21.6-4.2 46.4 6.9 66-.3.4-.5.7-.7 1.1-5.5-4.6-9.1-10.1-10.9-17.1zm38.9 83.5c-2.2-3.6-5.6-6.9-8.3-10-3.8-4.4-7.8-8.7-11.7-13.1-3.2-3.6-6.4-7.3-9.2-11.3-3-4.3-3.7-9.4-2.9-14.5 1.5-9.9 7.7-19.7 15.2-26.2 9.8-8.7 19 2.2 24.3 10.4h-.3c-2.3.1-5.3.4-7.5-.5-.2-.1-.4-.1-.6 0-3.4-1.5-7.3-2-10.1 1-.7.8.3 1.7 1.1 1.1 4.3-3.4 9.6 1.1 12.8 3.9 3.3 2.9 7.4 6.8 8.7 11.1 1.3 4.4-3.2 7.6-6.4 9.6-3.6 2.2-8 3.3-11.3 6-1.2 1 .3 2.6 1.6 2 3.2-1.5 6.5-3.1 9.6-4.8 0 .1.1.2.2.3 2 1 3.8 2.4 5.6 3.7 2.4 1.7 5 3.2 7.4 4.8 1.7 1.2 3.5 2.3 5.2 3.5-3.1.1-6.3 1-8.5 2-8.2 3.6-12.7 12.6-14.9 21zm-4.7-127.1c.5-.1 1-.6 1-1.2.3-2.6-.1-5.4-.2-8-.1-2.9-.1-5.7 0-8.6.1-3 .5-6 1.1-9 .5-2.4 1.4-4.7 2.1-7.1 2.9-.4 5.9-.8 8.8-1.2 2.5-.3 5-.5 7.4-.6s5 .1 7.4-.2c.1.5.4.8.8.9.1.3.4.5.7.5 1.5 0 2.9-.2 4.4-.2 1.1 0 2.3.2 3.1-.4.7.1 1.5-.3 1.5-1.2.2-5.5 1-11 2.5-16.3 1-3.4 2.3-6.8 3.6-10.1-1.1 9.1 1.5 18.8 5.1 26.9.3.7.9.8 1.5.5.6.7 2 .4 2-.7-.1-4.1-.6-8.1-.2-12.2.5-4.6 1.6-9.1 3.1-13.4s3.6-8.6 6-12.4c1-1.6 2.2-3.1 3.4-4.5-5.9 10.1-5.2 23 1.4 32.8 3.4 5 8.6 9 14.4 11.1-2.3.7-4.4 1.9-5.8 3.7-.5.8.4 1.7 1.2 1.5 3.3-1 6.2-2.2 9.8-2.3 3.7-.1 7.3 1 9.9 3.8 1.7 1.9 4.6-.9 2.8-2.8-.9-1-1.9-1.7-2.9-2.4 2.1.1 4.1.1 6.2-.1.3 0 .5-.1.7-.3.5-.3.8-.9.4-1.5-.1-.2-.1-.3-.3-.4-2-3.1-2.8-6.3-2.9-10 0-1.3.1-2.6.2-3.9 1.6 4 4 7.8 7.3 10.4 4.3 3.4 9.6 5 14.7 6.8.9 3.1 2.1 6.2 3.6 9.2 3.3 6.6 7.8 12.5 12.3 18.2 4.9 6.3 10.2 11.9 13.8 19.2 3.1 6.3 3.9 12.8 3.8 19.6-.1.8-.2 1.5-.3 2.3-.5 2.9-1.3 5.8-2.2 8.6-1.9.5-3.7 1.5-5.4 2.2-2.2.9-4.5 1.6-6.8 2.3-4.9 1.5-9.9 2.7-14.9 3.8-10.2 2.2-20.5 3.1-30.7 4.6v-2.1c0-3.8-.2-7.7 0-11.5.2-4.2 1.4-7.8 3.5-11.5.1-.2.1-.3.1-.5.1-.6-.2-1.4-1.2-1.5-6.2-.7-13 .5-19.1 1.1-5.9.6-12.4.6-18.2 2.2-.3.1-.5.5-.3.8-1.2 2-1.3 4.4-1.5 6.6-.2 2.6-.6 5.8.1 8.3-.9 0-1.7.1-2.6.1-2.7 0-5.4-.2-8 .3-3.4.7-5.7 3.4-6.5 6.6-3.3-1.1-7-1.5-10.3-2.3-3.9-1-7.8-2.1-11.6-3.5-7.3-2.6-14.5-6.2-20.5-11.4-2.7-2.3-5.1-5-6.7-8.1-1.6-3.2-1.8-7.1-1.6-10.6.5-7.6 4.1-15.3 9-20.9zm65.1-62.7c.8 6.3 3 12.8 6.9 17.9 3.5 4.5 7.9 7.5 12.8 9.3h-.2c-1.2-.2-2.5-.6-3.7-1-5.5-1.9-10.2-5.8-13.4-10.6-6.1-8.9-6.2-19.5-2.1-28.9-.9 4.5-.8 9.2-.3 13.3zm61 31.6c2.9 5.9 6.7 11.1 11.7 15.6 5.5 5 12 9.7 13.6 17.3.1.6.6.9 1.2.9.8 3.1 1.6 6.3 2.2 9.5.5 2.3.8 4.6 1.1 7-2.5-7.6-7.4-14.6-12.7-20.8-5.2-6-10.3-12.1-14.4-18.9-2.2-3.6-3.9-7.4-5.2-11.4.7.2 1.4.5 2 .7.1.1.3.1.5.1zm3.1 117.2c-.5 1.9-.9 3.8-1.3 5.7-.4 2-1.2 4.1-1.2 6.1 0 1 1.3 1.4 1.9.7.8.4 1.6.7 2.4 1l.6.3c-2.5 1.7-4.7 3.9-6.3 5.4-2.6 2.4-5.1 4.8-8 6.8-2.5 1.7-5.2 2.8-8.1 3.7-.2-1.6-.5-3.3-.7-4.7-.4-4.2-.6-9.2-3.1-12.7-1.8-2.6-4.8-3.7-8.1-4.2.5-1.2.4-2.6.4-3.9.1-2.7-.2-5.3-.5-7.9.1-.5-.1-1-.6-1.1.4-3.9-.5-8.1-.8-12 0-.5-.1-1-.1-1.5 5.6 4.4 13.9 3.2 20.2 1.1 5.9-2 15.2-6.6 15.9-13.7 1.5.2 2.9.7 4.3 1.6 1.2.7 2.3 1.7 3.6 2-3.3 4.9-5.6 10.3-7.5 15.9-1.1 3.8-2.1 7.6-3 11.4zm11.9 12.8c5.8 1.7 11.4 3.4 16.8 6.4 3.8 2.1 7.2 4.8 9.9 8.1l.1.1c-2.4 2.4-4.5 5.2-7 7.4-3.8 3.4-8.1 6.4-12.5 9.1-5.2 3.2-10.8 5.8-16.4 8.1-1.5.6-3.1 1.1-4.7 1.6-.4-.2-.9 0-1.1.3-3.9 1.2-7.8 2.2-11.5 3.8h-.6c-2 .7-3.8 1.8-5.8 2.4-2.3.7-4.7.9-7.1.7-5.8-.5-8.2-4.9-9.7-10-.9-3.1-2.1-5-5.2-6-2-.6-4.2-.8-6.2-1.5-1.1-.4-2.1-1-3-1.7-1.3-1-.2-1.6.9-2.2 2.3.6 4.6 1 6.9 1.3s4.9.9 7.3.7c1.5-.1 2-2.4.4-2.8-4.5-.9-9.1-.9-13.5-1.9-2.1-.5-4.6-1-6.3-2.4-1.8-1.4.6-2.9 1.4-4.3 1.8.4 3.7.6 5.3.8 2.2.3 4.3.6 6.5.8 1.8.2 3.9.9 5.5-.1.5-.3.6-1 .2-1.4-1.5-1.3-3.8-1-5.7-1.2-3.1-.3-6.2-.7-9.3-1.2-2.1-.4-4.3-.8-6.1-1.9-1.3-.8-1.5-2.1-1.2-3.5.4-1.5 1.6-2 2.8-2.7.8.5 1.6.9 2.4 1.2 2 .8 4.5.8 6.6 1.1 2.8.4 5.8 1 8.6.8 1.4-.1 1.7-2 .3-2.4-2.5-.8-20.6-1-17.9-6.6 1.3-2.8 5.8-3.1 8.4-3.2 2.9-.1 5.9.2 8.8.4 4.8.4 12.7-.8 14.8 4.7 1.3 3.3 1.7 7 2.2 10.5.6 4 1.4 7.9 2 11.8 0 .3.5.3.6.1.9-1.9 1-4.2.8-6.5 5.9.4 11.1-4.1 15.3-7.8 2.6-2.3 5-4.8 7.8-6.8 2.6-1.9 5.6-2.5 8.3-4-.2.1-.1 0-.1-.1zm30.1 20.3.6 1.8c-1.1-1.2-2.1-2.4-3.3-3.5l1.2-1.5c.5 1 1 2.1 1.5 3.2zM403 363.2c-.5.2-.8.6-.9 1.1-.3 7.2-4.1 15.7-10.5 19.4-.3-1.7-.7-3.3-1.2-4.8-.5-1.8-1.2-3.5-1.8-5.2 3.8-2.4 6.5-8 6-12.3 5.4-1.3 10.6-5.6 14.4-9.5.6-.7.4-1.9-.6-2.1-3.9-.9-8.7-1.2-12.8-.5.2-2-.3-4.2-.6-6.1-.3-2.1-.8-4.2-1.4-6.2 1.7-.6 3.4-1.3 5-1.9 1.3-.5 2.6-1 3.9-1.6-.1 3.3-.4 8 2.9 9.3 2 .8 4.3 1 6.5 1.1 1.2.1 2.4.1 3.6.1h1.4c.5 0 .3-.1.5.6 1.1 3.6-3.4 8.7-5.4 11.1-2.3 2.6-5.5 6.3-9 7.5zm-94.3-19.1v-.2c0-.7 0-1.5-.1-2.2-.2-2.5-.7-5.1-1.1-7.6l-3.3-23.1c-1.1-7.7-2.2-15.5-3.4-23.2-.5-3.1-.7-6.4-1.4-9.4 3.8 1.6 8.7 1.6 12.6 2 5.7.6 11.5.7 17.3.7 10.6 0 21.6-.4 31.9-3-.2 2-.3 4-.4 6-.1 1.5-.5 3.1-.3 4.5-3-.2-6.1-.1-8.6-.3-5.7-.4-17.2-1.2-18.1 6.8-.1 1.3.4 2.5 1.2 3.5-1.4.7-2.5 2.4-3.1 3.8-1.1 2.5.3 4.9 2.3 6.4.8.6 1.6 1 2.6 1.3-1.6 1-2.6 3-2.2 4.8.6 2.3 3.5 3.5 5.5 4.3h.1c-.8.7-1.4 1.6-1.1 2.8.6 2.1 2.8 3.3 4.7 4.2 2.4 1.1 4.9 1.3 7.4 2 2.2.7 2.5 2.6 3.1 4.6.8 2.9 2 5.4 3.7 7.3-.3.7-.4 1.6-.4 2.3-1.4.6-2.7 1.3-4.1 1.9-2 .8-4.1 1.4-6.1 1.9-4.5 1.1-9.1 1.7-13.7 1.9-8.7.5-16.9-1.1-25-4zm-23.9-69.6c-.1-1-.3-2-.7-3-.4-.9-.9-1.8-1.4-2.7 1.5-.2 3-.5 4.5-.8-1 2.1-1.8 4.3-2.4 6.5zm-2.5 14c-2-1.1-4.1-2-6.2-2.8 1.2-.7 2.4-1.4 3.5-2.2 1.6-1.1 2.9-2.4 3.8-3.9l-.9 4.5c-.2 1.4-.6 2.9-.2 4.4zm1.8.7c.9-1.3.8-2.9 1-4.5.3-2.1.8-4.2 1.3-6.3.9-3.6 2.2-7.2 3-10.9 3.1-.4 6.2-.4 9.3-.8 2.7-.3 5.5-.8 8.2-.1 1 .3 1.1 1.7 1.5 2.9-3.8.4-8.6 2.5-9.1 6.3h-.3c-.5 0-.9.5-1 .9-.2.1-.3.3-.3.6 0 3.5.8 7.1 1.3 10.6.5 4 1.1 8 1.6 12-.9-.9-2.4-1.6-3.2-2.2-2.5-1.7-5-3.4-7.6-5.1-1.9-1.2-3.7-2.4-5.6-3.4-.2.1-.1.1-.1 0zm42.2-17c1.3-.2 2.7-.2 4 .1 3.5.8 3.7 3.3 4.5 5.8-1.6.1-3.1.1-4.7.1-3.5 0-7 0-10.5-.2 0-.1 0-.2-.1-.3 1-2.7 3.1-4.4 5.6-5.2.4.1.9 0 1.2-.3zm-4.8-18.8c-.2 0-.7-.1-.9-.2.3.2.8-.6 1.1-.9.5-.4 1.1-.6 1.8-.8-.1.7-.1 1.3-.1 2-.7 0-1.3 0-1.9-.1zm1.9 9.1c-.8 0-1.6-.1-2.4-.3.7-.5 1.7-.7 2.5-1 0 .4-.1.8-.1 1.3zm2.2-7.2c.1-.3 0-.6-.1-.8-.1-1.1-.3-2.2-.5-3.2 1.3-.2 2.6-.2 3.8-.5-.1 3.8-.1 7.7-.1 11.5-1.1-.1-2.3 0-3.4.1.4-2.3.5-4.7.3-7.1zm.5-17.8c.1-2.7.7-5.3.9-7.9 1.2.1 2.4.2 3.6.2-1.3 4.7-1.5 9.8-1.6 14.7-1-.3-2.1-.4-3.2-.4.6-2 .2-4.4.3-6.6zm36.4 17.1c3 2.2 6.6 3.1 10.4 3 3.2-.1 9.2-1.5 10-5.2v-.1c3.2-.5 6.3-1.1 9.4-1.7 1.1-.2 2.2-.5 3.3-.7-3.4 5.8-8.6 9.3-14.9 11.5-5.9 2.1-14.3 3.3-19.6-.9-.1 0-.1-.1-.2-.1-.1-1.9-.1-3.9-.2-5.8.7.1 1.3.1 1.8 0zm3.3-.1c4.7-.3 9.4-.9 14.1-1.6-.6.5-1.3 1.1-2 1.5-1.7.9-3.7 1.1-5.6 1.1-2.1 0-4.4-.4-6.5-1zm-7.4-6.6c.1 4.7-.1 9.4.3 14.1.3 4.5.3 9.6 1.5 14-1.1.1-2.1.2-3.2.3-2.4-7.4-2.2-15.4-2.7-23.1-.3-4.2-.3-8.4-.1-12.7.3-4.4 1.5-8.4 2.5-12.7 1.6 0 3.1-.1 4.7-.2-3.7 5.9-3.1 14-3 20.3zm-6.1-9c-.5 4.8-.4 9.6-.2 14.4.2 4.3.3 8.6.6 12.9.3 3.5.7 7.1 2 10.4-.9.1-1.8.2-2.7.2-1.1-8.1-2.5-16.1-2.9-24.2-.5-8.4.3-16.3 2.7-24.3.7 0 1.4-.1 2.1-.1h1c-1.7 3.2-2.2 7.1-2.6 10.7zm-5.7 12.8c.2 8.5 1.7 17 3.1 25.4-1.7.1-3.4.3-5.1.4.1-.2.1-.4 0-.6-.5-3.3-1-6.5-1.1-9.8.3-.5.5-1.1.4-1.7 0-1-.4-1.8-.9-2.3.7-2.4-.1-5.6-.2-8-.1-1.6-.1-3.1-.2-4.7.5-.5.9-1.2.9-1.9 0-.5-.1-1-.4-1.4.2-2.9.2-5.9.6-8.8.4-3.2 1.1-6.3 1.8-9.5 1.4-.1 2.9-.2 4.3-.3-3 7.1-3.4 15.4-3.2 23.2zm-5.9-.6c-.1.9-.1 1.8-.1 2.8-.5-.2-1.3-.2-1.9-.2-.5 0-1.1 0-1.6.2v-2.5c1.3.1 2.6-.1 3.6-.3zm-3.6 9.4c1.2.2 2.4 0 3.5 0 .1.5.1 1.1.3 1.6-1.2-.3-2.6-.4-3.8-.1v-1.5zm0-5.1c.5.1 1.1.1 1.6.2.6 0 1.3.2 1.8 0 0 .9-.1 1.8-.1 2.8-1 0-2.3 0-3.4.2.1-1.1.1-2.1.1-3.2zm0 8.9c.8.2 1.6.1 2.4.2.6 0 1.1.1 1.6.3.2 0 .3.1.4.2.1 0 .1.1.2.1-.1 0-.2-.1-.2-.1s.1.1.1.3c0 .6-1.6 1.1-2 1.3-.8.4-1.6.5-2.5.7.1-1 0-2 0-3zm3.4-16c-.3.1-.8.1-1 .1h-2.2v-1.1c.9.2 1.9.3 2.7.6.2.2.4.3.5.4zm-2.6 29.6c-.3-2.7-.5-5.4-.6-8.1 1.5 0 3.1-.5 4.3-1.1h.1c-.2 3 .1 5.9.6 8.8v.1c-1.5.1-2.9.2-4.4.3zm2.8-32.5c-.4-.1-.8-.2-1.1-.3-.7-.2-1.5-.4-2.3-.4.2-5.2.5-10.4 1.6-15.4 1.4-.2 2.8-.3 4.1-.4-1.2 5.3-2.4 11-2.3 16.5zm-5.8 3.9c-.2.3-.2.8 0 1.1v1.4c0 5.5 0 10.9.4 16.4-.1.3-.1.7.1.9.1 1.4.3 2.8.5 4.2-1.1-1.6-2.6-2.9-4.7-3.5 0-6.5 0-13.1.1-19.6.1-6.6-.1-13.9 1.5-20.4 1.3-.1 2.5-.2 3.8-.3-1.4 6.5-1.6 13.2-1.7 19.8zm-16.2 25.9c-1.2-2.5-3.3-4.3-6.1-5.2.4-2.3 3.3-2.9 5.5-2.9 1.5 0 3 .5 4.3 1.4.7.5 1.1 1.1 1.4 1.8-2.4 1-4.2 2.7-5.1 4.9zm-1.7 2.6c-1.1-.1-2.3-.1-3.4-.2-2.7-.2-5.4-.5-8-.9-1.4-.2-2.8-.5-4.3-.7 2-2.8 5-4.1 8.7-4 3.8.1 5.9 2.6 7 5.8zm-20.6-25.7c3.3.9 6.8 1.8 10.2 1.9 0 .6 0 1.2.1 1.8-3.5-.3-7.1.2-10.5.3-1.3 0-2.5.1-3.8.1.4-.7.9-1.3 1.4-1.9.8-.8 1.8-1.5 2.6-2.2zm-2.2 6.9c4.6-.1 9.6.2 14.2-.6 1-.2 1.2-1.7.5-2.2.5-2.2.5-4.5 1.8-6.6 1.3-2.2 4.1-2.6 6.4-2.6 3.9-.1 8.2.7 12-.4 0 .7 0 1.4-.1 2.1-3.5-.9-9.1 0-10.7 3.5-1.5 3.2 2.4 4.3 5.2 4.1 0 .8.1 1.7.1 2.5-2.2-.2-4.8 1.2-5.8 3.1-.3.6-.2 1.5.5 1.8 3 1.5 7.2 1.9 10.6 1.1v4.6c-.8-.1-1.7 0-2.5.1-.4-1.1-1.3-2.1-2.1-2.8-1.7-1.5-4-2.1-6.2-2.1-3.1-.1-7.4 1.6-7.5 5h-.2c.3-1.4-.1-3.3-1.1-4.3-1.6-1.6-4.2-1.5-6.2-1.4-4 .2-8 .8-12 1.3-3.1.4-6.7.6-9.8 1.7-2.1-2.8-4.7-5.3-7.3-7.4 3.3.4 7-.1 9.7-.3 3.5-.1 7-.1 10.5-.2zm-8.7 136.8c-1.3 0-2.4-.4-3.4-1.2-1.2-1-.2-2.2.6-3 1.5-1.6 3.6-2.4 5.2-3.9.5-.5.3-1.3-.2-1.7 0 0 0-.1-.1-.1-2.9-4.4-5.1-9.2-7.1-14.1-1.9-4.6-4-9-5.5-13.8-3.1-10.1-4.5-21.3-2.9-31.8 1.3-8.5 5.3-17.8 13.1-22.3 2.6-1.5 5.6-2.2 8.6-2.2 2.4 0 4.6 1 6.9 1.2.4 2.7.8 5.5 1.1 8.2 1.1 7.8 2.1 15.5 3.2 23.3.4 2.5.6 5.2 1.1 7.7.1.7.3 1.4.5 2 .1.3.4 1.5.3.8.1.6.7.7 1.1.5 5.1 3.6 11.8 4.9 18.3 5.2-.4 2.3.1 5 .4 7.3.4 3 1 5.9 1.6 8.8 1.4 5.8 3.1 12.2 6 17.6.1.7.4 1.4.7 2.1-2.1 1.7-5.3 5-4.4 7.6-10.7.9-21.5 1-32.2 1.3-4.2 0-8.5.7-12.9.5zm88.7-3c-5.6.4-11.1.1-16.7.4-6.9.4-13.7.7-20.6.4-1.4-.1-4 .1-3-1.6 1-1.8 2.6-3.1 3.8-4.8.3-.4.2-1.1-.2-1.4-.3-.3-.6-.7-.9-1.2.2-.3.4-.6.2-1.1-1.9-5.6-4.2-10.9-5.7-16.7-.7-2.8-1.3-5.6-1.7-8.5-.4-2.5-.3-5.2-.8-7.7h5.2c4.9-.1 9.7-.8 14.4-2 3.7-.9 8.3-2.1 11.3-4.5.6-.5.4-1.3-.1-1.7v-1.1c1.5 1.3 3.4 2.2 5.7 2.7 4.7 1 12-.1 15.4-3.8l.1-.1c3.7-.1 7.5-1.1 11.2-2.4.2 1.5.6 3 .8 4.5.5 2.8.1 6.2 1.1 8.8.3.7 1.1.9 1.6.3 1.8.3 3.6.4 5.4.4 1.6.1 3.2.2 4.8.4-3.5 3.2-7.5 5.4-11.7 7.7-.4.2-.5.6-.5.9-.1.1-.2.2-.2.4-1.3 3.9-2.3 7.4-5.3 10.1-.3-.9-.6-1.8-.8-2.7-.8-2.9-1.3-5.8-2.1-8.6-.8-3-2.1-5.4-3.9-8-.4-.6-1.2-.1-.9.5 2 4.7 2.7 10.2 3.7 15.2.7 3.2 1.7 6.1 2.7 9.1 1 2.9 2 5.9 2.2 9 .1 1.4-.1 2.8-.9 4 0 .1-.1.1-.1.2-1.5.6-3.1 1.3-4.7 1.7-2.9.7-5.8 1-8.8 1.2zm57.8-25.6c-4.2 6.1-10 10.8-16.6 13.9-3.6 1.7-7.4 2.5-11.3 3.2-2.9.5-6.6 1.1-9.7.5 6-4.2 9.9-12.6 10.1-19.7 3.4-1.6 6.2-4.9 8.6-7.7 2.8-3.2 5.7-7 6.4-11.3.2-1.3 0-2.8-.8-3.8-1-1.3-4.6-.5-6.1-.6-1.9 0-6.6.2-7.4-2-.9-2.2-.4-4.8-.9-7.1 3.9-1.8 7.7-3.8 11.4-6.1 4.4-2.7 8.6-5.7 12.5-9.1 1.4-1.2 2.9-2.5 4.3-3.9.9 1.3 1.9 2.6 3 3.8.7.8 1.4 1.9 2.3 2.7.1 2.8.7 5.7 1.1 8.4.7 4.9 1.6 9.7 1.6 14.6-.1 8.7-3.7 17.2-8.5 24.2zm7.4-53.9c-.7-2.1-1.9-4.2-2.9-5.7-.1-.1-.1-.2-.2-.2-.1-.2-.2-.3-.3-.4-2.6-3.6-6.1-6.4-9.7-8.7-7.6-4.8-17.7-8.5-26.7-8-.7 0-.9 1-.2 1.2.8.3 1.7.5 2.5.7-.9.2-1.8.6-2.6 1-.5-.5-1.3-.7-2-.9-.8-.3-1.7-.6-2.5-.9 1-2.6 1.3-5.7 1.9-8.4.3-1.5.7-3.1 1-4.6 2.6-.4 5.1-.7 7.7-.6 2.9.2 5.8 1 8.5 1.9 4.3 1.5 8.6 3.6 12.7 5.5 3.9 1.8 7.7 3.9 11.1 6.6 1.7 1.4 3.3 3 4.5 4.7.8 1.2 1.3 2.5 1.8 3.7-1.3 4.5-2.9 8.8-4.6 13.1zm6.8-21.6c-.3 1.8-.7 3.5-1.2 5.2-1.1-2.1-2.9-3.9-4.3-5.3-3.6-3.4-8-5.8-12.4-7.9-9.1-4.4-20.2-9.4-30.4-6.2.4-2 .9-3.9 1.4-5.9 2-7.9 5.3-15.3 10-21.9.3-.5-.4-1.1-.8-.6-.9 1-1.7 2-2.4 3-1.2-1.4-3.6-2.3-5.2-3.1l-.6-.3c2.6-.7 5.2-1.4 7.7-2.2 2.7-.9 6.1-1.7 9-3.1-1.4 3.2-3.4 6.1-4.9 9.2-.1.2-.2.3-.4.5-.2.3-.3.6-.2.9v.1c-.4 1 1 1.7 1.7 1 .1-.2.3-.3.4-.5l.3-.3c4.2-5.4 8.4-10.7 11.9-16.5 12 .1 19 14.9 20.8 25.1 1.6 9.6 1.4 19.3-.4 28.8zm35.5-47.8c-2.5 7.1-8 12.2-14.1 16.3.1-.2.2-.5.2-.7 4.3-4.9 5.8-12.2 6.7-18.4 1.1-7.9.9-16-.3-23.8-.1-.5-.8-.3-.8.1.9 12.2 1.4 25.9-4.4 36.9.5-3 .6-6 .7-9 .1-2.3 0-4.6 0-6.9 0-2.4.2-4.9-.4-7.2-.2-.7-1.2-.7-1.4 0-1.3 3.6-.7 8.4-.8 12.2-.1 4.1-.4 8.2-1.4 12.2-.9 4-2.6 7.6-5 10.8-2.6 3.5-6.3 5.8-10 8-.1-4.8-.7-9.5-1.6-14.2 0-.2-.1-.5-.2-.7 2.3-2.4 2.6-7 2.9-10.1.3-4.1-.4-8-.9-12-.1-.5-.8-.3-.8.1-.2 3.7-.1 7.4-.3 11.1-.1 1.8-.4 3.7-.8 5.5-.2.9-.6 1.7-.9 2.5-3-9.5-10.9-22-21.1-20.8 1-1.8 1.9-3.7 2.7-5.6 1.3-3.1 2.3-6.3 3.2-9.5 4.7 6.9 17.7 3.3 23.5 0 4-2.3 7.2-6.6 9.6-10.5 2.9-4.5 4.9-9.7 5.9-15 1.7-9-.9-20.9-10.3-24.8-8.2-3.4-19.2.8-24.3 7.8-.1.1-.2.3-.3.4-.7-12-2.7-24.1-6-35.4-.2-.6-1-.3-.9.3 2.8 19.1 5.4 38.1 3.6 57.5-.9 9.5-3 18.8-6.4 27.7-1.2 3.2-2.8 6.3-4.7 9.3.6-1.6 1.1-3.2 1.6-4.8 1.6-4.9 2.9-10 3.8-15.1 1.9-10.4 2.4-21.1 2.5-31.6.1-10.1-.2-20.1-1.5-30.2-1.2-9.5-3.5-18.8-8.5-27.1-.2-.3-.7 0-.5.3 9.5 17.1 9.1 38 8.9 56.9-.1 10.4-.7 20.9-2.5 31.2-.7 3.7-1.5 7.4-2.6 11.1.8-6.7.3-13.5-.8-20.1-1.4-8.5-4-16.8-7-24.8-2.8-7.6-5.7-15.1-9.1-22.4-.3-.5-1.1-.2-1 .4 2 7.5 4.8 14.6 7.4 21.8.3.7.5 1.4.7 2.1-1.9-2.1-4-4.1-6.1-5.9-2.6-2.3-5.3-4.6-7.6-7.2-3.1-3.4-5.4-7.4-7.3-11.5-3.8-7.8-5.8-15.9-6.1-24.6-.2-6.1.5-12.2 0-18.2-.1-.7-1.1-.9-1.2-.2-1 5.9-1.3 11.7-1.2 17.6.2 8.5 1.9 16.3 5.1 24.1.1.3.2.5.3.8-.7-.2-1.4-.5-2.1-.7-.8-2.8-1.3-5.6-1.7-8.4 0-.3-.6-.4-.5 0 .3 2.7.7 5.4 1.3 8.1-4.1-1.4-8.2-2.9-11.9-5.4-5-3.4-6-9.3-9.4-13.9l-.2-.2c0-.1 0-.2-.1-.3-.2-.8-1.3-.7-1.5 0-1.8 6-1.5 13.5 1.4 19.2h-.9c-.1-.2-.4-.3-.7-.2-.4.1-.8.1-1.3.2-8.5-.3-16.8-3.2-22.6-9.8-4-4.6-6-10.7-7.1-16.6-.6-3.5-.6-7.2-.2-10.7s1.5-6.8 2-10.2c.4-.4.9-.8 1.3-1.3.5-.4-.1-1.1-.7-.8-8.1 3.9-13.3 13.4-16.3 21.5-1.7 4.5-2.9 9.3-3.5 14.1-.3 2.6-.7 5.6-.6 8.5-1.6-4.3-2.6-8.7-3.1-13.2-.6-5.5.2-11.1.6-16.6 0-.5-.7-.7-.9-.2-.6 1.3-1 2.7-1.4 4.1-6.4 8.7-8.8 19.3-9.3 29.9-1-.2-2.2 0-3.1.1-.9 0-1.8.1-2.6.3-.3-3.8-.1-7.6.6-11.4.8-4.2 2.7-8.2 3.3-12.3.1-.5-.5-1-.9-.5-2.5 3.1-3.6 7.6-4.5 11.3-.9 3.8-1.1 7.7-.9 11.5-2-.4-4.3-.2-6.3-.1-2.8.1-5.6.4-8.4.8-2.6.3-5.1.7-7.7 1-.3 0-.6.1-.9.1-.4-.3-1-.3-1.4.2-1 .1-1.9.2-2.8.4.2-4.2.2-8.4.8-12.7.7-4.7 1.8-9.3 3.3-13.8 2.9-8.6 7.6-17.3 14.4-23.5.7-.7-.3-1.6-1.1-1.1-3 2.4-5.6 5.1-7.8 8.2-6.9 6.3-11.3 14.4-14.5 23.2-1.5 4.3-2.9 8.6-3.7 13-.5 3-1.3 7.3.7 9.9.2.3.7 0 .6-.3-.3-3.7-.5-6.9.3-10.6.8-4 2.1-7.9 3.4-11.7 2.4-6.7 5.6-12.9 9.9-18.4-1.7 3.2-3.2 6.5-4.4 9.9-3.2 8.8-5.7 19.3-4.4 28.7-.4.4-.3 1.2.3 1.3 1.1.2 2.3.2 3.4.1-2 4.3-2.8 9.4-3.2 14-.3 3.1-.2 6.3-.1 9.4.1 2.7 0 5.5.4 8.2l-.1.1c-5.4 5.6-8.8 12.9-10 20.6-1.2 8.1 1.2 14.9 6.8 20.7 5.7 5.9 13.3 9.9 20.9 13 4 1.6 8.2 2.9 12.3 4.1-.5.4-1 .8-1.4 1.3-.9.9-2.2 2.3-2.4 3.6-1.4 0-2.9.1-4.3.1-2 .1-4 .3-6 .4-3.6-8.9-12.4-19.5-23.1-15.6 0 0-.1 0-.1.1-.4-3-1.1-6.1-1-9.2 0-.5-.8-.6-.9-.1-.5 3.5-.3 6.7 0 10.2-4 2.2-7.3 6.3-10 9.8-8.3-18.5-9.2-38.9-6.3-58.8 3.3-23.1 11.3-45.5 21.6-66.3 9.3-18.9 20.9-37.3 35.5-52.6 6.4-6.7 13.4-12.5 22-16.1 10.1-4.1 21.2-5.7 32-5.9 9.8-.2 19.6.9 29.1 3.5 7.6 2.1 15.2 5.3 21.2 10.6.2.3.6.6 1 .6 21 2.7 41.3 11 55.8 26.7 4.2 4.5 8.2 9.6 11 15.1 3.1 6.2 4.9 13.1 6.3 19.8 1.6 7.3 2.9 14.6 4 22 3.5 23.5 4.9 47.3 6.2 71 .9 7.4.9 15.1-1.6 22.3zm-45.2-42.1c.6-5.9.9-11.9.8-18 1.3-3.4 3.2-6 6.3-8.1 3.6-2.5 8.1-3.8 12.5-3.7 9.8.3 13.8 11.2 13.3 19.5-.6 9.3-5.6 18.6-12.4 24.8-2.8 2.6-6.7 3.7-10.3 4.4s-9 1.2-11.4-2.3c-.4-.6-1-.8-1.5-.7 1.2-5.1 2.1-10.5 2.7-15.9zm55.7 6.7c-.5 6.3-2.4 12.4-4.8 18.2-.1-4.7-.5-9.3-.9-13.8-.9-12.3-1.7-24.7-2.7-37.1 1.2 3.2 2.5 6.3 3.9 9.5 3.5 7.3 5.1 15.2 4.5 23.2z" fill="#851919" opacity="1" data-original="#851919"></path><path d="M436.8 99.3c-.2-.4-.9-.1-.8.3 3.1 10.1 7.4 19.8 10.7 29.9 1.7 5.2 3 10.4 3.9 15.8 1 5.7 1 11.4 1.2 17.2 0 .7 1 .7 1.1 0 1.4-10.8-1.4-22.3-4.5-32.5-3.2-10.5-7.3-20.7-11.6-30.7zM454.2 138.6c1.6 4.5 1.9 9.2 3 13.8.1.4.7.3.7-.1.4-4.7-1-9.7-2.8-14-.2-.5-1.1-.3-.9.3zM365.3 100.9c-2.1 5.3-4.2 10.6-5.7 16.2-.8 2.8-1.4 5.7-1.8 8.5-.4 2.4-.9 5.2-.3 7.6.1.4.6.3.7 0 .8-2.5.7-5.5 1.1-8.1s.9-5.1 1.6-7.7c1.4-5.5 3.4-10.9 5.3-16.3.1-.5-.7-.7-.9-.2zM359.2 110.3c-1.7 3.6-3 7.5-3.4 11.4-.1.6.9.7 1 .1.9-3.7 1.7-7.5 3.2-11 .3-.6-.6-1.1-.8-.5zM325.1 89.3c-4.1 3.3-8.2 6.7-11.8 10.5-3.3 3.4-6.6 7.7-7.6 12.4-.1.6.8 1.1 1.1.5 2.3-4.6 4.4-8.8 7.8-12.7 3.3-3.8 7.2-7 11-10.2.3-.3-.2-.8-.5-.5zM306.1 104.6c2-2.7 4.2-5.2 6.6-7.5.2-.2-.1-.5-.3-.3-2.5 2.3-4.6 4.9-6.5 7.7-.1.1.1.2.2.1zM354.9 212.2c7.1.3 13.1-7.3 13.4-15.8s-1.9-18.1-11.8-18.2c-9.6-.1-13.7 8.6-13.8 17.1 0 9.6 5.1 16.7 12.2 16.9zM256.9 411.5c-.9-.3-1.8-.4-2.7-.5-3.5-1.7-8.5-1-12.3-1H213.6c-3.6 0-7.8-.5-11.5 0 .4-9.7.3-19.4-.2-29.1-.5-8-1.3-16.1-1.9-24.1-.5-6.5-.8-13.1-1.8-19.6-.8-5.3-2.1-10.7-6.3-14.3-3.8-3.2-8.9-4.7-13.7-5.4-2.9-.4-6-.7-9-.6-5-2.2-11.1-2.1-16.4-2.2-7.4-.2-14.7-.8-22.1-.9-16.6-.2-33.1.2-49.6-.2-13.8-.4-27.6-.4-41.3.8-7.4.6-15.9 1.8-22 6.4-.1 0-.2.1-.3.2-4.1 2.6-6.1 7.7-7.4 12.2-1.5 5.4-1.9 11.1-2.3 16.7-.9 14.2-2 28.4-1.7 42.7.3 15 1.8 29.9 2.9 44.8.4 5.2.7 11.2 4.8 15.1 1.2 1.2 2.7 1.9 4.4 2.4-2.9 1.5-4.4 5-3.4 8.2.6 1.8 2 3.1 3.6 3.9 1.6.7 4.2 1.1 5.7 0 5.5.6 11.3.1 16.7.1h21.8c14.8 0 29.7-.1 44.5-.1h43.7c14.9 0 29.9.3 44.8-.2.7 0 1.1-.5 1.2-1 1.1-.1 2.1-.3 3-.6 6.5-1.9 11.8-6.7 17.5-10 6.5-3.8 13.5-6.5 20-10.3 5.6-3.3 11.2-7 16.3-10.9 4.1-3.1 8.2-6.9 8.7-12.3.4-4.3-1.3-8.8-5.4-10.2zm-15 1.2c1.5 0 3.1.1 4.7.1-1.9.9-3.8 2-5.4 3.1-3.9 2.5-7.6 5.4-11.7 7.6-4.5 2.4-8.8 5.1-13 7.8-6.2 4-12.3 8.2-18.5 12.1 1.6-3.1 2.1-6.5 2.4-9.9 1.1-.4 1.9-1.3 2.9-2.1 1.4-1.2 3-2.2 4.6-3.2 2.8-1.8 5.8-3.4 8.6-5.3.4-.3.4-.8.2-1.1.1-.3 0-.7-.4-.9-2.3-.9-5.3-.5-7.7-.5-2.3 0-4.7-.1-7 .3 0-.6.1-1.3.1-1.9.1.1.2.2.4.2 2 .1 3.8-1.6 5.4-2.6 2-1.3 3.9-2.5 6-3.7H227.9c4.6.1 9.3.1 14 0zm-41.2 17c.2-2 .4-3.9.5-5.9.6-.4 1.3-.8 1.9-1.2 1.5.1 2.9.1 4.4.1 1.7 0 3.6.2 5.4.1-2.4 1.2-4.7 2.5-7 3.9-1.5 1-3.8 2.2-5.3 3.7.1-.2.1-.4.1-.7zm9.1-16.8c-.9.5-1.8 1-2.6 1.6-1.7 1.1-4.3 2-5.5 3.7l.3-5.4c2.5.3 5.2.2 7.8.1zm-16.9-84.2c3 5.5 2.8 12.7 3.3 18.8.6 7.6 1.1 15.1 1.8 22.7 1.4 16.4 1.6 32.7.5 49.1-.1 1.6-.2 3.3-.4 4.9-.1.1-.1.2-.2.3-.1.2-.1.4.1.5-.2 1.9-.3 3.7-.5 5.6-.3 3.5-.4 7.1-1.8 10.4s-4 5.7-7 7.6c.3-.6.6-1.3.8-2 1.4-4.3 1.5-9 1.8-13.4.6-8.1.8-16.2 1-24.2.3-16.2 0-32.5-.9-48.6-.7-11.3-.4-24.4-7.8-33.8-2.1-2.6-4.8-4.8-7.8-6.5 6.8.7 13.7 2.4 17.1 8.6zM14.4 449.1c-3.1-4.2-2.4-10.8-2.9-15.8-1.2-13.9-2.1-27.9-2.3-41.9-.2-13.3.8-26.4 1.6-39.6.3-5.1.6-10.1 1.6-15.1 1.1-5.3 3.3-9.4 6.6-13.6.1-.1.2-.2.2-.4.7-.5 1.4-.9 2.2-1.4 4.3-2.3 9.4-3.1 14.3-3.7 12.6-1.4 25.6-1.3 38.3-1.1 16.6.4 33.2.5 49.8.4 7.8-.1 15.6.4 23.4.7 6.9.3 13.7.3 20.5 1.7.1 0 .3.1.4.1 3.7 2 7.5 3.7 10.6 6.6 3.6 3.2 5.8 7.4 7.1 12.1 1.8 6.8 1.9 14.2 2.3 21.2.5 8.1.7 16.2.9 24.3.3 16.3.1 32.6-.9 48.9-.5 7.8-.4 17.9-9.4 20.5-2.4.7-5 .9-7.5 1.2h-.8c-2.8.2-5.6.3-8.4.4-7.6.3-15.2.3-22.8.4-18.9 0-37.8-.3-56.7-.8l-37.1-.9c-6.4-.1-12.8-.4-19.2.3-4.5-.5-8.9-.6-11.8-4.5zM151.7 464H107c-14.5 0-29-.1-43.5-.1H41.6c-6.9 0-14.3-.8-21 .6-.3 0-.6-.1-.9-.1-1.1-.3-2-1.2-2.4-2.2-1.1-2.7 1.1-4.7 3-6.1.3-.2.4-.5.5-.8 2.6.4 5.3.3 7.5.4h.2c9.5 1 19.1 1 28.6 1.3 18.6.5 37.3 1 56 1.2 13 .2 26.1.3 39.1.1 6.8-.1 13.6 0 20.3-1.3 3.5.2 6.9-.4 9.8-1.8h.6c1-.3 2-.6 3-1.1-.6 2.4-.5 4.9.6 7.2.6 1.2 1.4 2.1 2.3 2.8-12.3-.4-24.7-.1-37.1-.1zm97.6-31.4c-5.4 3.8-11.1 7.7-16.9 10.8-6.5 3.5-13.4 6.3-19.6 10.3-5.6 3.6-11.7 8.9-18.7 8.8-2.8 0-4.9-1.8-5.5-4.5-.6-2.2.3-4.3 1.4-6.2 1.6-1.1 3.1-2.3 4.4-3.6 12.2-5.6 23-14 34.6-20.5 6-3.4 11.5-7.6 17.5-10.9 4.2-2.3 11.6-4.4 12.4 2.5.7 6-5.3 10.2-9.6 13.3z" fill="#851919" opacity="1" data-original="#851919"></path><path d="M201 451.8h-.1c-.2-.1-.4-.1-.6-.1h-.1c-.4-.1-.8-.1-1.2 0-.3.1-.6.3-.9.5-.2 0-.3.1-.5.2-.3.2-.5.6-.5 1-.3.5-.5.9-.4 1.5.2.7.9 1.2 1.6 1.2.2 0 .4.1.6.1.2.1.5.1.7.2.7.2 1.6-.1 1.9-.8.2-.5.3-.9.4-1.5v-.3c.1-.1.1-.3.1-.4.2-.6-.3-1.5-1-1.6zM219.1 440.5c-.5-.7-1.3-.8-1.9-.3-3.4 2.8-6.7 5.6-10.1 8.4-.5.4.1 1 .6.8.2.4.4.8.5 1.2.2.8 1.2.9 1.7.5 3.1-2.6 6.8-4.3 9.8-7 .5-.5.5-1.2.1-1.7 0-.7-.3-1.3-.7-1.9zm-9.7 8.1c0-.1.1-.2.3-.3-.1.2-.2.2-.3.3zM231.8 434.2v-.6c0-.7-.9-1.4-1.6-.9-2.4 1.8-5.4 3.1-7.4 5.5-.4.1-.6.3-.6.8v.8c0 .6.6 1.2 1.2 1 2.5-.9 5-2.2 7.3-3.7.4 0 .7-.2.9-.6.1-.1.2-.1.3-.2.9-.6.6-1.8-.1-2.1z" fill="#851919" opacity="1" data-original="#851919"></path></g><g fill="#fff"><path d="M300.7 189c-.2-.2-.3-.4-.5-.6-.3-1-1-1.7-2.2-2.2-2.1-.9-4.3.7-5.3 2.4-1.1 2-1.3 4.9 0 6.9 1.1 1.6 2.9 2.2 4.7 1.9 1.6-.2 3.3-1.4 4-2.8 1.1-1.9.6-4-.7-5.6zM290.8 197.7c-1.1 0-1.2 1.7-.1 1.8 1.2 0 1.3-1.7.1-1.8zM365.9 185.6c-.2-.2-.3-.4-.5-.6-.3-1-1-1.7-2.2-2.2-2.1-.9-4.3.7-5.3 2.4-1.1 2-1.3 4.9 0 6.9 1.1 1.6 2.9 2.2 4.7 1.9 1.6-.2 3.3-1.4 4-2.8 1.1-1.9.6-3.9-.7-5.6zM356.1 194.3c-1.1 0-1.2 1.7-.1 1.8s1.2-1.7.1-1.8z" fill="#ffffff" opacity="1" data-original="#ffffff"></path></g></g></svg>